<mxfile host="app.diagrams.net" agent="Mozilla/5.0 (Windows NT 10.0; Win64; x64) AppleWebKit/537.36 (KHTML, like Gecko) Chrome/133.0.0.0 Safari/537.36 Edg/133.0.0.0" version="26.0.16">
  <diagram id="R2lEEEUBdFMjLlhIrx00" name="Page-1">
    <mxGraphModel dx="1489" dy="807" grid="1" gridSize="10" guides="1" tooltips="1" connect="1" arrows="1" fold="1" page="1" pageScale="1" pageWidth="850" pageHeight="1100" math="0" shadow="0" extFonts="Permanent Marker^https://fonts.googleapis.com/css?family=Permanent+Marker">
      <root>
        <mxCell id="0" />
        <mxCell id="1" parent="0" />
        <mxCell id="C-vyLk0tnHw3VtMMgP7b-2" value="EMPLOYEE" style="shape=table;startSize=30;container=1;collapsible=1;childLayout=tableLayout;fixedRows=1;rowLines=0;fontStyle=1;align=center;resizeLast=1;labelBackgroundColor=none;fillColor=#FAE5C7;strokeColor=#0F8B8D;fontColor=#143642;" parent="1" vertex="1">
          <mxGeometry x="600" y="140" width="250" height="330" as="geometry" />
        </mxCell>
        <mxCell id="C-vyLk0tnHw3VtMMgP7b-3" value="" style="shape=partialRectangle;collapsible=0;dropTarget=0;pointerEvents=0;fillColor=none;points=[[0,0.5],[1,0.5]];portConstraint=eastwest;top=0;left=0;right=0;bottom=1;labelBackgroundColor=none;strokeColor=#0F8B8D;fontColor=#143642;" parent="C-vyLk0tnHw3VtMMgP7b-2" vertex="1">
          <mxGeometry y="30" width="250" height="30" as="geometry" />
        </mxCell>
        <mxCell id="C-vyLk0tnHw3VtMMgP7b-4" value="PK" style="shape=partialRectangle;overflow=hidden;connectable=0;fillColor=none;top=0;left=0;bottom=0;right=0;fontStyle=1;labelBackgroundColor=none;strokeColor=#0F8B8D;fontColor=#143642;" parent="C-vyLk0tnHw3VtMMgP7b-3" vertex="1">
          <mxGeometry width="30" height="30" as="geometry">
            <mxRectangle width="30" height="30" as="alternateBounds" />
          </mxGeometry>
        </mxCell>
        <mxCell id="C-vyLk0tnHw3VtMMgP7b-5" value="EMPLOYEE_ID" style="shape=partialRectangle;overflow=hidden;connectable=0;fillColor=none;top=0;left=0;bottom=0;right=0;align=left;spacingLeft=6;fontStyle=5;labelBackgroundColor=none;strokeColor=#0F8B8D;fontColor=#143642;" parent="C-vyLk0tnHw3VtMMgP7b-3" vertex="1">
          <mxGeometry x="30" width="220" height="30" as="geometry">
            <mxRectangle width="220" height="30" as="alternateBounds" />
          </mxGeometry>
        </mxCell>
        <mxCell id="C-vyLk0tnHw3VtMMgP7b-6" value="" style="shape=partialRectangle;collapsible=0;dropTarget=0;pointerEvents=0;fillColor=none;points=[[0,0.5],[1,0.5]];portConstraint=eastwest;top=0;left=0;right=0;bottom=0;labelBackgroundColor=none;strokeColor=#0F8B8D;fontColor=#143642;" parent="C-vyLk0tnHw3VtMMgP7b-2" vertex="1">
          <mxGeometry y="60" width="250" height="30" as="geometry" />
        </mxCell>
        <mxCell id="C-vyLk0tnHw3VtMMgP7b-7" value="" style="shape=partialRectangle;overflow=hidden;connectable=0;fillColor=none;top=0;left=0;bottom=0;right=0;labelBackgroundColor=none;strokeColor=#0F8B8D;fontColor=#143642;" parent="C-vyLk0tnHw3VtMMgP7b-6" vertex="1">
          <mxGeometry width="30" height="30" as="geometry">
            <mxRectangle width="30" height="30" as="alternateBounds" />
          </mxGeometry>
        </mxCell>
        <mxCell id="C-vyLk0tnHw3VtMMgP7b-8" value="FIRST_NAME" style="shape=partialRectangle;overflow=hidden;connectable=0;fillColor=none;top=0;left=0;bottom=0;right=0;align=left;spacingLeft=6;labelBackgroundColor=none;strokeColor=#0F8B8D;fontColor=#143642;" parent="C-vyLk0tnHw3VtMMgP7b-6" vertex="1">
          <mxGeometry x="30" width="220" height="30" as="geometry">
            <mxRectangle width="220" height="30" as="alternateBounds" />
          </mxGeometry>
        </mxCell>
        <mxCell id="CH8Q1lonQJTsU_onpGBQ-19" value="" style="shape=partialRectangle;collapsible=0;dropTarget=0;pointerEvents=0;fillColor=none;points=[[0,0.5],[1,0.5]];portConstraint=eastwest;top=0;left=0;right=0;bottom=0;labelBackgroundColor=none;strokeColor=#0F8B8D;fontColor=#143642;" parent="C-vyLk0tnHw3VtMMgP7b-2" vertex="1">
          <mxGeometry y="90" width="250" height="30" as="geometry" />
        </mxCell>
        <mxCell id="CH8Q1lonQJTsU_onpGBQ-20" value="" style="shape=partialRectangle;overflow=hidden;connectable=0;fillColor=none;top=0;left=0;bottom=0;right=0;labelBackgroundColor=none;strokeColor=#0F8B8D;fontColor=#143642;" parent="CH8Q1lonQJTsU_onpGBQ-19" vertex="1">
          <mxGeometry width="30" height="30" as="geometry">
            <mxRectangle width="30" height="30" as="alternateBounds" />
          </mxGeometry>
        </mxCell>
        <mxCell id="CH8Q1lonQJTsU_onpGBQ-21" value="LAST_NAME" style="shape=partialRectangle;overflow=hidden;connectable=0;fillColor=none;top=0;left=0;bottom=0;right=0;align=left;spacingLeft=6;labelBackgroundColor=none;strokeColor=#0F8B8D;fontColor=#143642;" parent="CH8Q1lonQJTsU_onpGBQ-19" vertex="1">
          <mxGeometry x="30" width="220" height="30" as="geometry">
            <mxRectangle width="220" height="30" as="alternateBounds" />
          </mxGeometry>
        </mxCell>
        <mxCell id="XAgKRtzbgoDLWBsCESKd-159" value="" style="shape=partialRectangle;collapsible=0;dropTarget=0;pointerEvents=0;fillColor=none;points=[[0,0.5],[1,0.5]];portConstraint=eastwest;top=0;left=0;right=0;bottom=0;labelBackgroundColor=none;strokeColor=#0F8B8D;fontColor=#143642;" parent="C-vyLk0tnHw3VtMMgP7b-2" vertex="1">
          <mxGeometry y="120" width="250" height="30" as="geometry" />
        </mxCell>
        <mxCell id="XAgKRtzbgoDLWBsCESKd-160" value="" style="shape=partialRectangle;overflow=hidden;connectable=0;fillColor=none;top=0;left=0;bottom=0;right=0;labelBackgroundColor=none;strokeColor=#0F8B8D;fontColor=#143642;" parent="XAgKRtzbgoDLWBsCESKd-159" vertex="1">
          <mxGeometry width="30" height="30" as="geometry">
            <mxRectangle width="30" height="30" as="alternateBounds" />
          </mxGeometry>
        </mxCell>
        <mxCell id="XAgKRtzbgoDLWBsCESKd-161" value="EMPLOYEE_BANK_ACCT_NUMBER" style="shape=partialRectangle;overflow=hidden;connectable=0;fillColor=none;top=0;left=0;bottom=0;right=0;align=left;spacingLeft=6;labelBackgroundColor=none;strokeColor=#0F8B8D;fontColor=#143642;" parent="XAgKRtzbgoDLWBsCESKd-159" vertex="1">
          <mxGeometry x="30" width="220" height="30" as="geometry">
            <mxRectangle width="220" height="30" as="alternateBounds" />
          </mxGeometry>
        </mxCell>
        <mxCell id="0HSMD2Hgdb4bcQWk6r_O-65" value="" style="shape=partialRectangle;collapsible=0;dropTarget=0;pointerEvents=0;fillColor=none;points=[[0,0.5],[1,0.5]];portConstraint=eastwest;top=0;left=0;right=0;bottom=0;labelBackgroundColor=none;strokeColor=#0F8B8D;fontColor=#143642;" parent="C-vyLk0tnHw3VtMMgP7b-2" vertex="1">
          <mxGeometry y="150" width="250" height="30" as="geometry" />
        </mxCell>
        <mxCell id="0HSMD2Hgdb4bcQWk6r_O-66" value="" style="shape=partialRectangle;overflow=hidden;connectable=0;fillColor=none;top=0;left=0;bottom=0;right=0;labelBackgroundColor=none;strokeColor=#0F8B8D;fontColor=#143642;" parent="0HSMD2Hgdb4bcQWk6r_O-65" vertex="1">
          <mxGeometry width="30" height="30" as="geometry">
            <mxRectangle width="30" height="30" as="alternateBounds" />
          </mxGeometry>
        </mxCell>
        <mxCell id="0HSMD2Hgdb4bcQWk6r_O-67" value="JOB_FUNCTION" style="shape=partialRectangle;overflow=hidden;connectable=0;fillColor=none;top=0;left=0;bottom=0;right=0;align=left;spacingLeft=6;labelBackgroundColor=none;strokeColor=#0F8B8D;fontColor=#143642;" parent="0HSMD2Hgdb4bcQWk6r_O-65" vertex="1">
          <mxGeometry x="30" width="220" height="30" as="geometry">
            <mxRectangle width="220" height="30" as="alternateBounds" />
          </mxGeometry>
        </mxCell>
        <mxCell id="0HSMD2Hgdb4bcQWk6r_O-68" value="" style="shape=partialRectangle;collapsible=0;dropTarget=0;pointerEvents=0;fillColor=none;points=[[0,0.5],[1,0.5]];portConstraint=eastwest;top=0;left=0;right=0;bottom=0;labelBackgroundColor=none;strokeColor=#0F8B8D;fontColor=#143642;" parent="C-vyLk0tnHw3VtMMgP7b-2" vertex="1">
          <mxGeometry y="180" width="250" height="30" as="geometry" />
        </mxCell>
        <mxCell id="0HSMD2Hgdb4bcQWk6r_O-69" value="" style="shape=partialRectangle;overflow=hidden;connectable=0;fillColor=none;top=0;left=0;bottom=0;right=0;labelBackgroundColor=none;strokeColor=#0F8B8D;fontColor=#143642;" parent="0HSMD2Hgdb4bcQWk6r_O-68" vertex="1">
          <mxGeometry width="30" height="30" as="geometry">
            <mxRectangle width="30" height="30" as="alternateBounds" />
          </mxGeometry>
        </mxCell>
        <mxCell id="0HSMD2Hgdb4bcQWk6r_O-70" value="LICENSE_ID" style="shape=partialRectangle;overflow=hidden;connectable=0;fillColor=none;top=0;left=0;bottom=0;right=0;align=left;spacingLeft=6;labelBackgroundColor=none;strokeColor=#0F8B8D;fontColor=#143642;" parent="0HSMD2Hgdb4bcQWk6r_O-68" vertex="1">
          <mxGeometry x="30" width="220" height="30" as="geometry">
            <mxRectangle width="220" height="30" as="alternateBounds" />
          </mxGeometry>
        </mxCell>
        <mxCell id="0HSMD2Hgdb4bcQWk6r_O-83" value="" style="shape=partialRectangle;collapsible=0;dropTarget=0;pointerEvents=0;fillColor=none;points=[[0,0.5],[1,0.5]];portConstraint=eastwest;top=0;left=0;right=0;bottom=0;labelBackgroundColor=none;strokeColor=#0F8B8D;fontColor=#143642;" parent="C-vyLk0tnHw3VtMMgP7b-2" vertex="1">
          <mxGeometry y="210" width="250" height="30" as="geometry" />
        </mxCell>
        <mxCell id="0HSMD2Hgdb4bcQWk6r_O-84" value="" style="shape=partialRectangle;overflow=hidden;connectable=0;fillColor=none;top=0;left=0;bottom=0;right=0;labelBackgroundColor=none;strokeColor=#0F8B8D;fontColor=#143642;" parent="0HSMD2Hgdb4bcQWk6r_O-83" vertex="1">
          <mxGeometry width="30" height="30" as="geometry">
            <mxRectangle width="30" height="30" as="alternateBounds" />
          </mxGeometry>
        </mxCell>
        <mxCell id="0HSMD2Hgdb4bcQWk6r_O-85" value="LICENSE_EXPIRATION_DATE" style="shape=partialRectangle;overflow=hidden;connectable=0;fillColor=none;top=0;left=0;bottom=0;right=0;align=left;spacingLeft=6;labelBackgroundColor=none;strokeColor=#0F8B8D;fontColor=#143642;" parent="0HSMD2Hgdb4bcQWk6r_O-83" vertex="1">
          <mxGeometry x="30" width="220" height="30" as="geometry">
            <mxRectangle width="220" height="30" as="alternateBounds" />
          </mxGeometry>
        </mxCell>
        <mxCell id="XAgKRtzbgoDLWBsCESKd-18" value="" style="shape=partialRectangle;collapsible=0;dropTarget=0;pointerEvents=0;fillColor=none;points=[[0,0.5],[1,0.5]];portConstraint=eastwest;top=0;left=0;right=0;bottom=0;labelBackgroundColor=none;strokeColor=#0F8B8D;fontColor=#143642;" parent="C-vyLk0tnHw3VtMMgP7b-2" vertex="1">
          <mxGeometry y="240" width="250" height="30" as="geometry" />
        </mxCell>
        <mxCell id="XAgKRtzbgoDLWBsCESKd-19" value="" style="shape=partialRectangle;overflow=hidden;connectable=0;fillColor=none;top=0;left=0;bottom=0;right=0;labelBackgroundColor=none;strokeColor=#0F8B8D;fontColor=#143642;" parent="XAgKRtzbgoDLWBsCESKd-18" vertex="1">
          <mxGeometry width="30" height="30" as="geometry">
            <mxRectangle width="30" height="30" as="alternateBounds" />
          </mxGeometry>
        </mxCell>
        <mxCell id="XAgKRtzbgoDLWBsCESKd-20" value="MONTHLY_SALARY" style="shape=partialRectangle;overflow=hidden;connectable=0;fillColor=none;top=0;left=0;bottom=0;right=0;align=left;spacingLeft=6;labelBackgroundColor=none;strokeColor=#0F8B8D;fontColor=#143642;" parent="XAgKRtzbgoDLWBsCESKd-18" vertex="1">
          <mxGeometry x="30" width="220" height="30" as="geometry">
            <mxRectangle width="220" height="30" as="alternateBounds" />
          </mxGeometry>
        </mxCell>
        <mxCell id="CH8Q1lonQJTsU_onpGBQ-25" value="" style="shape=partialRectangle;collapsible=0;dropTarget=0;pointerEvents=0;fillColor=none;points=[[0,0.5],[1,0.5]];portConstraint=eastwest;top=0;left=0;right=0;bottom=0;labelBackgroundColor=none;strokeColor=#0F8B8D;fontColor=#143642;" parent="C-vyLk0tnHw3VtMMgP7b-2" vertex="1">
          <mxGeometry y="270" width="250" height="30" as="geometry" />
        </mxCell>
        <mxCell id="CH8Q1lonQJTsU_onpGBQ-26" value="FK1" style="shape=partialRectangle;overflow=hidden;connectable=0;fillColor=none;top=0;left=0;bottom=0;right=0;labelBackgroundColor=none;strokeColor=#0F8B8D;fontColor=#143642;" parent="CH8Q1lonQJTsU_onpGBQ-25" vertex="1">
          <mxGeometry width="30" height="30" as="geometry">
            <mxRectangle width="30" height="30" as="alternateBounds" />
          </mxGeometry>
        </mxCell>
        <mxCell id="CH8Q1lonQJTsU_onpGBQ-27" value="BANK_NAME" style="shape=partialRectangle;overflow=hidden;connectable=0;fillColor=none;top=0;left=0;bottom=0;right=0;align=left;spacingLeft=6;labelBackgroundColor=none;strokeColor=#0F8B8D;fontColor=#143642;" parent="CH8Q1lonQJTsU_onpGBQ-25" vertex="1">
          <mxGeometry x="30" width="220" height="30" as="geometry">
            <mxRectangle width="220" height="30" as="alternateBounds" />
          </mxGeometry>
        </mxCell>
        <mxCell id="XAgKRtzbgoDLWBsCESKd-21" value="" style="shape=partialRectangle;collapsible=0;dropTarget=0;pointerEvents=0;fillColor=none;points=[[0,0.5],[1,0.5]];portConstraint=eastwest;top=0;left=0;right=0;bottom=0;labelBackgroundColor=none;strokeColor=#0F8B8D;fontColor=#143642;" parent="C-vyLk0tnHw3VtMMgP7b-2" vertex="1">
          <mxGeometry y="300" width="250" height="30" as="geometry" />
        </mxCell>
        <mxCell id="XAgKRtzbgoDLWBsCESKd-22" value="FK1" style="shape=partialRectangle;overflow=hidden;connectable=0;fillColor=none;top=0;left=0;bottom=0;right=0;labelBackgroundColor=none;strokeColor=#0F8B8D;fontColor=#143642;" parent="XAgKRtzbgoDLWBsCESKd-21" vertex="1">
          <mxGeometry width="30" height="30" as="geometry">
            <mxRectangle width="30" height="30" as="alternateBounds" />
          </mxGeometry>
        </mxCell>
        <mxCell id="XAgKRtzbgoDLWBsCESKd-23" value="ACCT_ROUTING_NUM" style="shape=partialRectangle;overflow=hidden;connectable=0;fillColor=none;top=0;left=0;bottom=0;right=0;align=left;spacingLeft=6;labelBackgroundColor=none;strokeColor=#0F8B8D;fontColor=#143642;" parent="XAgKRtzbgoDLWBsCESKd-21" vertex="1">
          <mxGeometry x="30" width="220" height="30" as="geometry">
            <mxRectangle width="220" height="30" as="alternateBounds" />
          </mxGeometry>
        </mxCell>
        <mxCell id="C-vyLk0tnHw3VtMMgP7b-13" value="BILLING" style="shape=table;startSize=30;container=1;collapsible=1;childLayout=tableLayout;fixedRows=1;rowLines=0;fontStyle=1;align=center;resizeLast=1;labelBackgroundColor=none;fillColor=#FAE5C7;strokeColor=#0F8B8D;fontColor=#143642;" parent="1" vertex="1">
          <mxGeometry x="490" y="500" width="270" height="330" as="geometry" />
        </mxCell>
        <mxCell id="C-vyLk0tnHw3VtMMgP7b-14" value="" style="shape=partialRectangle;collapsible=0;dropTarget=0;pointerEvents=0;fillColor=none;points=[[0,0.5],[1,0.5]];portConstraint=eastwest;top=0;left=0;right=0;bottom=1;labelBackgroundColor=none;strokeColor=#0F8B8D;fontColor=#143642;" parent="C-vyLk0tnHw3VtMMgP7b-13" vertex="1">
          <mxGeometry y="30" width="270" height="60" as="geometry" />
        </mxCell>
        <mxCell id="C-vyLk0tnHw3VtMMgP7b-15" value="PK,FK1&#xa;PK,FK1&#xa;PK,FK1&#xa;PK        " style="shape=partialRectangle;overflow=hidden;connectable=0;fillColor=none;top=0;left=0;bottom=0;right=0;fontStyle=1;labelBackgroundColor=none;strokeColor=#0F8B8D;fontColor=#143642;" parent="C-vyLk0tnHw3VtMMgP7b-14" vertex="1">
          <mxGeometry width="50" height="60" as="geometry">
            <mxRectangle width="50" height="60" as="alternateBounds" />
          </mxGeometry>
        </mxCell>
        <mxCell id="C-vyLk0tnHw3VtMMgP7b-16" value="PATIENT_ID&#xa;PROCEDURE_CODE&#xa;EMPLOYEE_ID&#xa;TREATMENT_DATE" style="shape=partialRectangle;overflow=hidden;connectable=0;fillColor=none;top=0;left=0;bottom=0;right=0;align=left;spacingLeft=6;fontStyle=5;labelBackgroundColor=none;strokeColor=#0F8B8D;fontColor=#143642;" parent="C-vyLk0tnHw3VtMMgP7b-14" vertex="1">
          <mxGeometry x="50" width="220" height="60" as="geometry">
            <mxRectangle width="220" height="60" as="alternateBounds" />
          </mxGeometry>
        </mxCell>
        <mxCell id="XAgKRtzbgoDLWBsCESKd-41" value="" style="shape=partialRectangle;collapsible=0;dropTarget=0;pointerEvents=0;fillColor=none;points=[[0,0.5],[1,0.5]];portConstraint=eastwest;top=0;left=0;right=0;bottom=0;labelBackgroundColor=none;strokeColor=#0F8B8D;fontColor=#143642;" parent="C-vyLk0tnHw3VtMMgP7b-13" vertex="1">
          <mxGeometry y="90" width="270" height="30" as="geometry" />
        </mxCell>
        <mxCell id="XAgKRtzbgoDLWBsCESKd-42" value="" style="shape=partialRectangle;overflow=hidden;connectable=0;fillColor=none;top=0;left=0;bottom=0;right=0;labelBackgroundColor=none;strokeColor=#0F8B8D;fontColor=#143642;" parent="XAgKRtzbgoDLWBsCESKd-41" vertex="1">
          <mxGeometry width="50" height="30" as="geometry">
            <mxRectangle width="50" height="30" as="alternateBounds" />
          </mxGeometry>
        </mxCell>
        <mxCell id="XAgKRtzbgoDLWBsCESKd-43" value="TOTAL_AMOUNT_DUE" style="shape=partialRectangle;overflow=hidden;connectable=0;fillColor=none;top=0;left=0;bottom=0;right=0;align=left;spacingLeft=6;labelBackgroundColor=none;strokeColor=#0F8B8D;fontColor=#143642;" parent="XAgKRtzbgoDLWBsCESKd-41" vertex="1">
          <mxGeometry x="50" width="220" height="30" as="geometry">
            <mxRectangle width="220" height="30" as="alternateBounds" />
          </mxGeometry>
        </mxCell>
        <mxCell id="XAgKRtzbgoDLWBsCESKd-151" value="" style="shape=partialRectangle;collapsible=0;dropTarget=0;pointerEvents=0;fillColor=none;points=[[0,0.5],[1,0.5]];portConstraint=eastwest;top=0;left=0;right=0;bottom=0;labelBackgroundColor=none;strokeColor=#0F8B8D;fontColor=#143642;" parent="C-vyLk0tnHw3VtMMgP7b-13" vertex="1">
          <mxGeometry y="120" width="270" height="30" as="geometry" />
        </mxCell>
        <mxCell id="XAgKRtzbgoDLWBsCESKd-152" value="FK2" style="shape=partialRectangle;overflow=hidden;connectable=0;fillColor=none;top=0;left=0;bottom=0;right=0;labelBackgroundColor=none;strokeColor=#0F8B8D;fontColor=#143642;" parent="XAgKRtzbgoDLWBsCESKd-151" vertex="1">
          <mxGeometry width="50" height="30" as="geometry">
            <mxRectangle width="50" height="30" as="alternateBounds" />
          </mxGeometry>
        </mxCell>
        <mxCell id="XAgKRtzbgoDLWBsCESKd-153" value="INSURANCE_PROVIDER_NAME" style="shape=partialRectangle;overflow=hidden;connectable=0;fillColor=none;top=0;left=0;bottom=0;right=0;align=left;spacingLeft=6;labelBackgroundColor=none;strokeColor=#0F8B8D;fontColor=#143642;" parent="XAgKRtzbgoDLWBsCESKd-151" vertex="1">
          <mxGeometry x="50" width="220" height="30" as="geometry">
            <mxRectangle width="220" height="30" as="alternateBounds" />
          </mxGeometry>
        </mxCell>
        <mxCell id="XAgKRtzbgoDLWBsCESKd-171" value="" style="shape=partialRectangle;collapsible=0;dropTarget=0;pointerEvents=0;fillColor=none;points=[[0,0.5],[1,0.5]];portConstraint=eastwest;top=0;left=0;right=0;bottom=0;labelBackgroundColor=none;strokeColor=#0F8B8D;fontColor=#143642;" parent="C-vyLk0tnHw3VtMMgP7b-13" vertex="1">
          <mxGeometry y="150" width="270" height="30" as="geometry" />
        </mxCell>
        <mxCell id="XAgKRtzbgoDLWBsCESKd-172" value="FK2" style="shape=partialRectangle;overflow=hidden;connectable=0;fillColor=none;top=0;left=0;bottom=0;right=0;labelBackgroundColor=none;strokeColor=#0F8B8D;fontColor=#143642;" parent="XAgKRtzbgoDLWBsCESKd-171" vertex="1">
          <mxGeometry width="50" height="30" as="geometry">
            <mxRectangle width="50" height="30" as="alternateBounds" />
          </mxGeometry>
        </mxCell>
        <mxCell id="XAgKRtzbgoDLWBsCESKd-173" value="PATIENT_SUBSCRIBER_ID" style="shape=partialRectangle;overflow=hidden;connectable=0;fillColor=none;top=0;left=0;bottom=0;right=0;align=left;spacingLeft=6;labelBackgroundColor=none;strokeColor=#0F8B8D;fontColor=#143642;" parent="XAgKRtzbgoDLWBsCESKd-171" vertex="1">
          <mxGeometry x="50" width="220" height="30" as="geometry">
            <mxRectangle width="220" height="30" as="alternateBounds" />
          </mxGeometry>
        </mxCell>
        <mxCell id="CH8Q1lonQJTsU_onpGBQ-13" value="" style="shape=partialRectangle;collapsible=0;dropTarget=0;pointerEvents=0;fillColor=none;points=[[0,0.5],[1,0.5]];portConstraint=eastwest;top=0;left=0;right=0;bottom=0;labelBackgroundColor=none;strokeColor=#0F8B8D;fontColor=#143642;" parent="C-vyLk0tnHw3VtMMgP7b-13" vertex="1">
          <mxGeometry y="180" width="270" height="30" as="geometry" />
        </mxCell>
        <mxCell id="CH8Q1lonQJTsU_onpGBQ-14" value="FK2" style="shape=partialRectangle;overflow=hidden;connectable=0;fillColor=none;top=0;left=0;bottom=0;right=0;labelBackgroundColor=none;strokeColor=#0F8B8D;fontColor=#143642;" parent="CH8Q1lonQJTsU_onpGBQ-13" vertex="1">
          <mxGeometry width="50" height="30" as="geometry">
            <mxRectangle width="50" height="30" as="alternateBounds" />
          </mxGeometry>
        </mxCell>
        <mxCell id="CH8Q1lonQJTsU_onpGBQ-15" value="INSUR_COVERAGE_PLAN" style="shape=partialRectangle;overflow=hidden;connectable=0;fillColor=none;top=0;left=0;bottom=0;right=0;align=left;spacingLeft=6;labelBackgroundColor=none;strokeColor=#0F8B8D;fontColor=#143642;" parent="CH8Q1lonQJTsU_onpGBQ-13" vertex="1">
          <mxGeometry x="50" width="220" height="30" as="geometry">
            <mxRectangle width="220" height="30" as="alternateBounds" />
          </mxGeometry>
        </mxCell>
        <mxCell id="XAgKRtzbgoDLWBsCESKd-116" value="" style="shape=partialRectangle;collapsible=0;dropTarget=0;pointerEvents=0;fillColor=none;points=[[0,0.5],[1,0.5]];portConstraint=eastwest;top=0;left=0;right=0;bottom=0;labelBackgroundColor=none;strokeColor=#0F8B8D;fontColor=#143642;" parent="C-vyLk0tnHw3VtMMgP7b-13" vertex="1">
          <mxGeometry y="210" width="270" height="30" as="geometry" />
        </mxCell>
        <mxCell id="XAgKRtzbgoDLWBsCESKd-117" value="" style="shape=partialRectangle;overflow=hidden;connectable=0;fillColor=none;top=0;left=0;bottom=0;right=0;labelBackgroundColor=none;strokeColor=#0F8B8D;fontColor=#143642;" parent="XAgKRtzbgoDLWBsCESKd-116" vertex="1">
          <mxGeometry width="50" height="30" as="geometry">
            <mxRectangle width="50" height="30" as="alternateBounds" />
          </mxGeometry>
        </mxCell>
        <mxCell id="XAgKRtzbgoDLWBsCESKd-118" value="AMOUNT_DUE_FROM_INSURANCE" style="shape=partialRectangle;overflow=hidden;connectable=0;fillColor=none;top=0;left=0;bottom=0;right=0;align=left;spacingLeft=6;labelBackgroundColor=none;strokeColor=#0F8B8D;fontColor=#143642;" parent="XAgKRtzbgoDLWBsCESKd-116" vertex="1">
          <mxGeometry x="50" width="220" height="30" as="geometry">
            <mxRectangle width="220" height="30" as="alternateBounds" />
          </mxGeometry>
        </mxCell>
        <mxCell id="XAgKRtzbgoDLWBsCESKd-128" value="" style="shape=partialRectangle;collapsible=0;dropTarget=0;pointerEvents=0;fillColor=none;points=[[0,0.5],[1,0.5]];portConstraint=eastwest;top=0;left=0;right=0;bottom=0;labelBackgroundColor=none;strokeColor=#0F8B8D;fontColor=#143642;" parent="C-vyLk0tnHw3VtMMgP7b-13" vertex="1">
          <mxGeometry y="240" width="270" height="30" as="geometry" />
        </mxCell>
        <mxCell id="XAgKRtzbgoDLWBsCESKd-129" value="" style="shape=partialRectangle;overflow=hidden;connectable=0;fillColor=none;top=0;left=0;bottom=0;right=0;labelBackgroundColor=none;strokeColor=#0F8B8D;fontColor=#143642;" parent="XAgKRtzbgoDLWBsCESKd-128" vertex="1">
          <mxGeometry width="50" height="30" as="geometry">
            <mxRectangle width="50" height="30" as="alternateBounds" />
          </mxGeometry>
        </mxCell>
        <mxCell id="XAgKRtzbgoDLWBsCESKd-130" value="AMOUNT_DUE_FROM_PATIENT" style="shape=partialRectangle;overflow=hidden;connectable=0;fillColor=none;top=0;left=0;bottom=0;right=0;align=left;spacingLeft=6;labelBackgroundColor=none;strokeColor=#0F8B8D;fontColor=#143642;" parent="XAgKRtzbgoDLWBsCESKd-128" vertex="1">
          <mxGeometry x="50" width="220" height="30" as="geometry">
            <mxRectangle width="220" height="30" as="alternateBounds" />
          </mxGeometry>
        </mxCell>
        <mxCell id="XAgKRtzbgoDLWBsCESKd-164" value="" style="shape=partialRectangle;collapsible=0;dropTarget=0;pointerEvents=0;fillColor=none;points=[[0,0.5],[1,0.5]];portConstraint=eastwest;top=0;left=0;right=0;bottom=0;labelBackgroundColor=none;strokeColor=#0F8B8D;fontColor=#143642;" parent="C-vyLk0tnHw3VtMMgP7b-13" vertex="1">
          <mxGeometry y="270" width="270" height="30" as="geometry" />
        </mxCell>
        <mxCell id="XAgKRtzbgoDLWBsCESKd-165" value="FK3" style="shape=partialRectangle;overflow=hidden;connectable=0;fillColor=none;top=0;left=0;bottom=0;right=0;labelBackgroundColor=none;strokeColor=#0F8B8D;fontColor=#143642;" parent="XAgKRtzbgoDLWBsCESKd-164" vertex="1">
          <mxGeometry width="50" height="30" as="geometry">
            <mxRectangle width="50" height="30" as="alternateBounds" />
          </mxGeometry>
        </mxCell>
        <mxCell id="XAgKRtzbgoDLWBsCESKd-166" value="BANK_NAME" style="shape=partialRectangle;overflow=hidden;connectable=0;fillColor=none;top=0;left=0;bottom=0;right=0;align=left;spacingLeft=6;labelBackgroundColor=none;strokeColor=#0F8B8D;fontColor=#143642;" parent="XAgKRtzbgoDLWBsCESKd-164" vertex="1">
          <mxGeometry x="50" width="220" height="30" as="geometry">
            <mxRectangle width="220" height="30" as="alternateBounds" />
          </mxGeometry>
        </mxCell>
        <mxCell id="CH8Q1lonQJTsU_onpGBQ-102" value="" style="shape=partialRectangle;collapsible=0;dropTarget=0;pointerEvents=0;fillColor=none;points=[[0,0.5],[1,0.5]];portConstraint=eastwest;top=0;left=0;right=0;bottom=0;labelBackgroundColor=none;strokeColor=#0F8B8D;fontColor=#143642;" parent="C-vyLk0tnHw3VtMMgP7b-13" vertex="1">
          <mxGeometry y="300" width="270" height="30" as="geometry" />
        </mxCell>
        <mxCell id="CH8Q1lonQJTsU_onpGBQ-103" value="FK3" style="shape=partialRectangle;overflow=hidden;connectable=0;fillColor=none;top=0;left=0;bottom=0;right=0;labelBackgroundColor=none;strokeColor=#0F8B8D;fontColor=#143642;" parent="CH8Q1lonQJTsU_onpGBQ-102" vertex="1">
          <mxGeometry width="50" height="30" as="geometry">
            <mxRectangle width="50" height="30" as="alternateBounds" />
          </mxGeometry>
        </mxCell>
        <mxCell id="CH8Q1lonQJTsU_onpGBQ-104" value="ACCT_ROUTING_NUM" style="shape=partialRectangle;overflow=hidden;connectable=0;fillColor=none;top=0;left=0;bottom=0;right=0;align=left;spacingLeft=6;labelBackgroundColor=none;strokeColor=#0F8B8D;fontColor=#143642;" parent="CH8Q1lonQJTsU_onpGBQ-102" vertex="1">
          <mxGeometry x="50" width="220" height="30" as="geometry">
            <mxRectangle width="220" height="30" as="alternateBounds" />
          </mxGeometry>
        </mxCell>
        <mxCell id="C-vyLk0tnHw3VtMMgP7b-23" value="LOAN" style="shape=table;startSize=30;container=1;collapsible=1;childLayout=tableLayout;fixedRows=1;rowLines=0;fontStyle=1;align=center;resizeLast=1;labelBackgroundColor=none;fillColor=#FAE5C7;strokeColor=#0F8B8D;fontColor=#143642;" parent="1" vertex="1">
          <mxGeometry x="20" y="140" width="210" height="300" as="geometry" />
        </mxCell>
        <mxCell id="C-vyLk0tnHw3VtMMgP7b-24" value="" style="shape=partialRectangle;collapsible=0;dropTarget=0;pointerEvents=0;fillColor=none;points=[[0,0.5],[1,0.5]];portConstraint=eastwest;top=0;left=0;right=0;bottom=1;labelBackgroundColor=none;strokeColor=#0F8B8D;fontColor=#143642;" parent="C-vyLk0tnHw3VtMMgP7b-23" vertex="1">
          <mxGeometry y="30" width="210" height="30" as="geometry" />
        </mxCell>
        <mxCell id="C-vyLk0tnHw3VtMMgP7b-25" value="PK" style="shape=partialRectangle;overflow=hidden;connectable=0;fillColor=none;top=0;left=0;bottom=0;right=0;fontStyle=1;labelBackgroundColor=none;strokeColor=#0F8B8D;fontColor=#143642;" parent="C-vyLk0tnHw3VtMMgP7b-24" vertex="1">
          <mxGeometry width="30" height="30" as="geometry">
            <mxRectangle width="30" height="30" as="alternateBounds" />
          </mxGeometry>
        </mxCell>
        <mxCell id="C-vyLk0tnHw3VtMMgP7b-26" value="LOAN_ID" style="shape=partialRectangle;overflow=hidden;connectable=0;fillColor=none;top=0;left=0;bottom=0;right=0;align=left;spacingLeft=6;fontStyle=5;labelBackgroundColor=none;strokeColor=#0F8B8D;fontColor=#143642;" parent="C-vyLk0tnHw3VtMMgP7b-24" vertex="1">
          <mxGeometry x="30" width="180" height="30" as="geometry">
            <mxRectangle width="180" height="30" as="alternateBounds" />
          </mxGeometry>
        </mxCell>
        <mxCell id="3ehIjHs2K8UcwK9uWAea-72" value="" style="shape=partialRectangle;collapsible=0;dropTarget=0;pointerEvents=0;fillColor=none;points=[[0,0.5],[1,0.5]];portConstraint=eastwest;top=0;left=0;right=0;bottom=0;labelBackgroundColor=none;strokeColor=#0F8B8D;fontColor=#143642;" parent="C-vyLk0tnHw3VtMMgP7b-23" vertex="1">
          <mxGeometry y="60" width="210" height="30" as="geometry" />
        </mxCell>
        <mxCell id="3ehIjHs2K8UcwK9uWAea-73" value="" style="shape=partialRectangle;overflow=hidden;connectable=0;fillColor=none;top=0;left=0;bottom=0;right=0;labelBackgroundColor=none;strokeColor=#0F8B8D;fontColor=#143642;" parent="3ehIjHs2K8UcwK9uWAea-72" vertex="1">
          <mxGeometry width="30" height="30" as="geometry">
            <mxRectangle width="30" height="30" as="alternateBounds" />
          </mxGeometry>
        </mxCell>
        <mxCell id="3ehIjHs2K8UcwK9uWAea-74" value="LOAN_AMOUNT" style="shape=partialRectangle;overflow=hidden;connectable=0;fillColor=none;top=0;left=0;bottom=0;right=0;align=left;spacingLeft=6;labelBackgroundColor=none;strokeColor=#0F8B8D;fontColor=#143642;" parent="3ehIjHs2K8UcwK9uWAea-72" vertex="1">
          <mxGeometry x="30" width="180" height="30" as="geometry">
            <mxRectangle width="180" height="30" as="alternateBounds" />
          </mxGeometry>
        </mxCell>
        <mxCell id="C-vyLk0tnHw3VtMMgP7b-27" value="" style="shape=partialRectangle;collapsible=0;dropTarget=0;pointerEvents=0;fillColor=none;points=[[0,0.5],[1,0.5]];portConstraint=eastwest;top=0;left=0;right=0;bottom=0;labelBackgroundColor=none;strokeColor=#0F8B8D;fontColor=#143642;" parent="C-vyLk0tnHw3VtMMgP7b-23" vertex="1">
          <mxGeometry y="90" width="210" height="30" as="geometry" />
        </mxCell>
        <mxCell id="C-vyLk0tnHw3VtMMgP7b-28" value="" style="shape=partialRectangle;overflow=hidden;connectable=0;fillColor=none;top=0;left=0;bottom=0;right=0;labelBackgroundColor=none;strokeColor=#0F8B8D;fontColor=#143642;" parent="C-vyLk0tnHw3VtMMgP7b-27" vertex="1">
          <mxGeometry width="30" height="30" as="geometry">
            <mxRectangle width="30" height="30" as="alternateBounds" />
          </mxGeometry>
        </mxCell>
        <mxCell id="C-vyLk0tnHw3VtMMgP7b-29" value="DATE_LOAN_RECEIVED" style="shape=partialRectangle;overflow=hidden;connectable=0;fillColor=none;top=0;left=0;bottom=0;right=0;align=left;spacingLeft=6;labelBackgroundColor=none;strokeColor=#0F8B8D;fontColor=#143642;" parent="C-vyLk0tnHw3VtMMgP7b-27" vertex="1">
          <mxGeometry x="30" width="180" height="30" as="geometry">
            <mxRectangle width="180" height="30" as="alternateBounds" />
          </mxGeometry>
        </mxCell>
        <mxCell id="3ehIjHs2K8UcwK9uWAea-65" value="" style="shape=partialRectangle;collapsible=0;dropTarget=0;pointerEvents=0;fillColor=none;points=[[0,0.5],[1,0.5]];portConstraint=eastwest;top=0;left=0;right=0;bottom=0;labelBackgroundColor=none;strokeColor=#0F8B8D;fontColor=#143642;" parent="C-vyLk0tnHw3VtMMgP7b-23" vertex="1">
          <mxGeometry y="120" width="210" height="30" as="geometry" />
        </mxCell>
        <mxCell id="3ehIjHs2K8UcwK9uWAea-66" value="" style="shape=partialRectangle;overflow=hidden;connectable=0;fillColor=none;top=0;left=0;bottom=0;right=0;labelBackgroundColor=none;strokeColor=#0F8B8D;fontColor=#143642;" parent="3ehIjHs2K8UcwK9uWAea-65" vertex="1">
          <mxGeometry width="30" height="30" as="geometry">
            <mxRectangle width="30" height="30" as="alternateBounds" />
          </mxGeometry>
        </mxCell>
        <mxCell id="3ehIjHs2K8UcwK9uWAea-67" value="INTEREST_RATE" style="shape=partialRectangle;overflow=hidden;connectable=0;fillColor=none;top=0;left=0;bottom=0;right=0;align=left;spacingLeft=6;labelBackgroundColor=none;strokeColor=#0F8B8D;fontColor=#143642;" parent="3ehIjHs2K8UcwK9uWAea-65" vertex="1">
          <mxGeometry x="30" width="180" height="30" as="geometry">
            <mxRectangle width="180" height="30" as="alternateBounds" />
          </mxGeometry>
        </mxCell>
        <mxCell id="3ehIjHs2K8UcwK9uWAea-68" value="" style="shape=partialRectangle;collapsible=0;dropTarget=0;pointerEvents=0;fillColor=none;points=[[0,0.5],[1,0.5]];portConstraint=eastwest;top=0;left=0;right=0;bottom=0;labelBackgroundColor=none;strokeColor=#0F8B8D;fontColor=#143642;" parent="C-vyLk0tnHw3VtMMgP7b-23" vertex="1">
          <mxGeometry y="150" width="210" height="30" as="geometry" />
        </mxCell>
        <mxCell id="3ehIjHs2K8UcwK9uWAea-69" value="" style="shape=partialRectangle;overflow=hidden;connectable=0;fillColor=none;top=0;left=0;bottom=0;right=0;labelBackgroundColor=none;strokeColor=#0F8B8D;fontColor=#143642;" parent="3ehIjHs2K8UcwK9uWAea-68" vertex="1">
          <mxGeometry width="30" height="30" as="geometry">
            <mxRectangle width="30" height="30" as="alternateBounds" />
          </mxGeometry>
        </mxCell>
        <mxCell id="3ehIjHs2K8UcwK9uWAea-70" value="INSTALLMENT_AMOUNT" style="shape=partialRectangle;overflow=hidden;connectable=0;fillColor=none;top=0;left=0;bottom=0;right=0;align=left;spacingLeft=6;labelBackgroundColor=none;strokeColor=#0F8B8D;fontColor=#143642;" parent="3ehIjHs2K8UcwK9uWAea-68" vertex="1">
          <mxGeometry x="30" width="180" height="30" as="geometry">
            <mxRectangle width="180" height="30" as="alternateBounds" />
          </mxGeometry>
        </mxCell>
        <mxCell id="3ehIjHs2K8UcwK9uWAea-75" value="" style="shape=partialRectangle;collapsible=0;dropTarget=0;pointerEvents=0;fillColor=none;points=[[0,0.5],[1,0.5]];portConstraint=eastwest;top=0;left=0;right=0;bottom=0;labelBackgroundColor=none;strokeColor=#0F8B8D;fontColor=#143642;" parent="C-vyLk0tnHw3VtMMgP7b-23" vertex="1">
          <mxGeometry y="180" width="210" height="30" as="geometry" />
        </mxCell>
        <mxCell id="3ehIjHs2K8UcwK9uWAea-76" value="" style="shape=partialRectangle;overflow=hidden;connectable=0;fillColor=none;top=0;left=0;bottom=0;right=0;labelBackgroundColor=none;strokeColor=#0F8B8D;fontColor=#143642;" parent="3ehIjHs2K8UcwK9uWAea-75" vertex="1">
          <mxGeometry width="30" height="30" as="geometry">
            <mxRectangle width="30" height="30" as="alternateBounds" />
          </mxGeometry>
        </mxCell>
        <mxCell id="3ehIjHs2K8UcwK9uWAea-77" value="INSTALLMENT_FREQUENCY" style="shape=partialRectangle;overflow=hidden;connectable=0;fillColor=none;top=0;left=0;bottom=0;right=0;align=left;spacingLeft=6;labelBackgroundColor=none;strokeColor=#0F8B8D;fontColor=#143642;" parent="3ehIjHs2K8UcwK9uWAea-75" vertex="1">
          <mxGeometry x="30" width="180" height="30" as="geometry">
            <mxRectangle width="180" height="30" as="alternateBounds" />
          </mxGeometry>
        </mxCell>
        <mxCell id="CH8Q1lonQJTsU_onpGBQ-22" value="" style="shape=partialRectangle;collapsible=0;dropTarget=0;pointerEvents=0;fillColor=none;points=[[0,0.5],[1,0.5]];portConstraint=eastwest;top=0;left=0;right=0;bottom=0;labelBackgroundColor=none;strokeColor=#0F8B8D;fontColor=#143642;" parent="C-vyLk0tnHw3VtMMgP7b-23" vertex="1">
          <mxGeometry y="210" width="210" height="30" as="geometry" />
        </mxCell>
        <mxCell id="CH8Q1lonQJTsU_onpGBQ-23" value="" style="shape=partialRectangle;overflow=hidden;connectable=0;fillColor=none;top=0;left=0;bottom=0;right=0;labelBackgroundColor=none;strokeColor=#0F8B8D;fontColor=#143642;" parent="CH8Q1lonQJTsU_onpGBQ-22" vertex="1">
          <mxGeometry width="30" height="30" as="geometry">
            <mxRectangle width="30" height="30" as="alternateBounds" />
          </mxGeometry>
        </mxCell>
        <mxCell id="CH8Q1lonQJTsU_onpGBQ-24" value="DURATION" style="shape=partialRectangle;overflow=hidden;connectable=0;fillColor=none;top=0;left=0;bottom=0;right=0;align=left;spacingLeft=6;labelBackgroundColor=none;strokeColor=#0F8B8D;fontColor=#143642;" parent="CH8Q1lonQJTsU_onpGBQ-22" vertex="1">
          <mxGeometry x="30" width="180" height="30" as="geometry">
            <mxRectangle width="180" height="30" as="alternateBounds" />
          </mxGeometry>
        </mxCell>
        <mxCell id="XAgKRtzbgoDLWBsCESKd-155" value="" style="shape=partialRectangle;collapsible=0;dropTarget=0;pointerEvents=0;fillColor=none;points=[[0,0.5],[1,0.5]];portConstraint=eastwest;top=0;left=0;right=0;bottom=0;labelBackgroundColor=none;strokeColor=#0F8B8D;fontColor=#143642;" parent="C-vyLk0tnHw3VtMMgP7b-23" vertex="1">
          <mxGeometry y="240" width="210" height="30" as="geometry" />
        </mxCell>
        <mxCell id="XAgKRtzbgoDLWBsCESKd-156" value="FK1" style="shape=partialRectangle;overflow=hidden;connectable=0;fillColor=none;top=0;left=0;bottom=0;right=0;labelBackgroundColor=none;strokeColor=#0F8B8D;fontColor=#143642;" parent="XAgKRtzbgoDLWBsCESKd-155" vertex="1">
          <mxGeometry width="30" height="30" as="geometry">
            <mxRectangle width="30" height="30" as="alternateBounds" />
          </mxGeometry>
        </mxCell>
        <mxCell id="XAgKRtzbgoDLWBsCESKd-157" value="BANK_NAME" style="shape=partialRectangle;overflow=hidden;connectable=0;fillColor=none;top=0;left=0;bottom=0;right=0;align=left;spacingLeft=6;labelBackgroundColor=none;strokeColor=#0F8B8D;fontColor=#143642;" parent="XAgKRtzbgoDLWBsCESKd-155" vertex="1">
          <mxGeometry x="30" width="180" height="30" as="geometry">
            <mxRectangle width="180" height="30" as="alternateBounds" />
          </mxGeometry>
        </mxCell>
        <mxCell id="0HSMD2Hgdb4bcQWk6r_O-27" value="" style="shape=partialRectangle;collapsible=0;dropTarget=0;pointerEvents=0;fillColor=none;points=[[0,0.5],[1,0.5]];portConstraint=eastwest;top=0;left=0;right=0;bottom=0;labelBackgroundColor=none;strokeColor=#0F8B8D;fontColor=#143642;" parent="C-vyLk0tnHw3VtMMgP7b-23" vertex="1">
          <mxGeometry y="270" width="210" height="30" as="geometry" />
        </mxCell>
        <mxCell id="0HSMD2Hgdb4bcQWk6r_O-28" value="FK1" style="shape=partialRectangle;overflow=hidden;connectable=0;fillColor=none;top=0;left=0;bottom=0;right=0;labelBackgroundColor=none;strokeColor=#0F8B8D;fontColor=#143642;" parent="0HSMD2Hgdb4bcQWk6r_O-27" vertex="1">
          <mxGeometry width="30" height="30" as="geometry">
            <mxRectangle width="30" height="30" as="alternateBounds" />
          </mxGeometry>
        </mxCell>
        <mxCell id="0HSMD2Hgdb4bcQWk6r_O-29" value="ACCT_ROUTING_NUM" style="shape=partialRectangle;overflow=hidden;connectable=0;fillColor=none;top=0;left=0;bottom=0;right=0;align=left;spacingLeft=6;labelBackgroundColor=none;strokeColor=#0F8B8D;fontColor=#143642;" parent="0HSMD2Hgdb4bcQWk6r_O-27" vertex="1">
          <mxGeometry x="30" width="180" height="30" as="geometry">
            <mxRectangle width="180" height="30" as="alternateBounds" />
          </mxGeometry>
        </mxCell>
        <mxCell id="3ehIjHs2K8UcwK9uWAea-3" value="Performs procedures for" style="text;html=1;align=center;verticalAlign=middle;whiteSpace=wrap;rounded=0;fontColor=#143642;" parent="1" vertex="1">
          <mxGeometry x="810" y="520" width="50" height="30" as="geometry" />
        </mxCell>
        <mxCell id="3ehIjHs2K8UcwK9uWAea-29" value="INSURANCE" style="shape=table;startSize=30;container=1;collapsible=1;childLayout=tableLayout;fixedRows=1;rowLines=0;fontStyle=1;align=center;resizeLast=1;labelBackgroundColor=none;fillColor=#FAE5C7;strokeColor=#0F8B8D;fontColor=#143642;" parent="1" vertex="1">
          <mxGeometry x="230" y="560" width="250" height="170" as="geometry" />
        </mxCell>
        <mxCell id="3ehIjHs2K8UcwK9uWAea-30" value="" style="shape=partialRectangle;collapsible=0;dropTarget=0;pointerEvents=0;fillColor=none;points=[[0,0.5],[1,0.5]];portConstraint=eastwest;top=0;left=0;right=0;bottom=1;labelBackgroundColor=none;strokeColor=#0F8B8D;fontColor=#143642;" parent="3ehIjHs2K8UcwK9uWAea-29" vertex="1">
          <mxGeometry y="30" width="250" height="50" as="geometry" />
        </mxCell>
        <mxCell id="3ehIjHs2K8UcwK9uWAea-31" value="PK&#xa;PK&#xa;PK" style="shape=partialRectangle;overflow=hidden;connectable=0;fillColor=none;top=0;left=0;bottom=0;right=0;fontStyle=1;labelBackgroundColor=none;strokeColor=#0F8B8D;fontColor=#143642;" parent="3ehIjHs2K8UcwK9uWAea-30" vertex="1">
          <mxGeometry width="30" height="50" as="geometry">
            <mxRectangle width="30" height="50" as="alternateBounds" />
          </mxGeometry>
        </mxCell>
        <mxCell id="3ehIjHs2K8UcwK9uWAea-32" value="INSURANCE_PROVIDER_NAME&#xa;PATIENT_SUBSCRIBER_ID&#xa;INSUR_COVERAGE_PLAN" style="shape=partialRectangle;overflow=hidden;connectable=0;fillColor=none;top=0;left=0;bottom=0;right=0;align=left;spacingLeft=6;fontStyle=5;labelBackgroundColor=none;strokeColor=#0F8B8D;fontColor=#143642;" parent="3ehIjHs2K8UcwK9uWAea-30" vertex="1">
          <mxGeometry x="30" width="220" height="50" as="geometry">
            <mxRectangle width="220" height="50" as="alternateBounds" />
          </mxGeometry>
        </mxCell>
        <mxCell id="WErBEDRtUJ3U63TOo5Kr-49" value="" style="shape=partialRectangle;collapsible=0;dropTarget=0;pointerEvents=0;fillColor=none;points=[[0,0.5],[1,0.5]];portConstraint=eastwest;top=0;left=0;right=0;bottom=0;labelBackgroundColor=none;strokeColor=#0F8B8D;fontColor=#143642;" parent="3ehIjHs2K8UcwK9uWAea-29" vertex="1">
          <mxGeometry y="80" width="250" height="30" as="geometry" />
        </mxCell>
        <mxCell id="WErBEDRtUJ3U63TOo5Kr-50" value="FK1" style="shape=partialRectangle;overflow=hidden;connectable=0;fillColor=none;top=0;left=0;bottom=0;right=0;labelBackgroundColor=none;strokeColor=#0F8B8D;fontColor=#143642;" parent="WErBEDRtUJ3U63TOo5Kr-49" vertex="1">
          <mxGeometry width="30" height="30" as="geometry">
            <mxRectangle width="30" height="30" as="alternateBounds" />
          </mxGeometry>
        </mxCell>
        <mxCell id="WErBEDRtUJ3U63TOo5Kr-51" value="PATIENT_ID" style="shape=partialRectangle;overflow=hidden;connectable=0;fillColor=none;top=0;left=0;bottom=0;right=0;align=left;spacingLeft=6;labelBackgroundColor=none;strokeColor=#0F8B8D;fontColor=#143642;" parent="WErBEDRtUJ3U63TOo5Kr-49" vertex="1">
          <mxGeometry x="30" width="220" height="30" as="geometry">
            <mxRectangle width="220" height="30" as="alternateBounds" />
          </mxGeometry>
        </mxCell>
        <mxCell id="WErBEDRtUJ3U63TOo5Kr-9" value="" style="shape=partialRectangle;collapsible=0;dropTarget=0;pointerEvents=0;fillColor=none;points=[[0,0.5],[1,0.5]];portConstraint=eastwest;top=0;left=0;right=0;bottom=0;labelBackgroundColor=none;strokeColor=#0F8B8D;fontColor=#143642;" parent="3ehIjHs2K8UcwK9uWAea-29" vertex="1">
          <mxGeometry y="110" width="250" height="30" as="geometry" />
        </mxCell>
        <mxCell id="WErBEDRtUJ3U63TOo5Kr-10" value="" style="shape=partialRectangle;overflow=hidden;connectable=0;fillColor=none;top=0;left=0;bottom=0;right=0;labelBackgroundColor=none;strokeColor=#0F8B8D;fontColor=#143642;" parent="WErBEDRtUJ3U63TOo5Kr-9" vertex="1">
          <mxGeometry width="30" height="30" as="geometry">
            <mxRectangle width="30" height="30" as="alternateBounds" />
          </mxGeometry>
        </mxCell>
        <mxCell id="WErBEDRtUJ3U63TOo5Kr-11" value="INSUR_COVERAGE_AMOUNT" style="shape=partialRectangle;overflow=hidden;connectable=0;fillColor=none;top=0;left=0;bottom=0;right=0;align=left;spacingLeft=6;labelBackgroundColor=none;strokeColor=#0F8B8D;fontColor=#143642;" parent="WErBEDRtUJ3U63TOo5Kr-9" vertex="1">
          <mxGeometry x="30" width="220" height="30" as="geometry">
            <mxRectangle width="220" height="30" as="alternateBounds" />
          </mxGeometry>
        </mxCell>
        <mxCell id="CH8Q1lonQJTsU_onpGBQ-88" value="" style="shape=partialRectangle;collapsible=0;dropTarget=0;pointerEvents=0;fillColor=none;points=[[0,0.5],[1,0.5]];portConstraint=eastwest;top=0;left=0;right=0;bottom=0;labelBackgroundColor=none;strokeColor=#0F8B8D;fontColor=#143642;" parent="3ehIjHs2K8UcwK9uWAea-29" vertex="1">
          <mxGeometry y="140" width="250" height="30" as="geometry" />
        </mxCell>
        <mxCell id="CH8Q1lonQJTsU_onpGBQ-89" value="" style="shape=partialRectangle;overflow=hidden;connectable=0;fillColor=none;top=0;left=0;bottom=0;right=0;labelBackgroundColor=none;strokeColor=#0F8B8D;fontColor=#143642;" parent="CH8Q1lonQJTsU_onpGBQ-88" vertex="1">
          <mxGeometry width="30" height="30" as="geometry">
            <mxRectangle width="30" height="30" as="alternateBounds" />
          </mxGeometry>
        </mxCell>
        <mxCell id="CH8Q1lonQJTsU_onpGBQ-90" value="INSUR_BANK_ACCT_NUMBER" style="shape=partialRectangle;overflow=hidden;connectable=0;fillColor=none;top=0;left=0;bottom=0;right=0;align=left;spacingLeft=6;labelBackgroundColor=none;strokeColor=#0F8B8D;fontColor=#143642;" parent="CH8Q1lonQJTsU_onpGBQ-88" vertex="1">
          <mxGeometry x="30" width="220" height="30" as="geometry">
            <mxRectangle width="220" height="30" as="alternateBounds" />
          </mxGeometry>
        </mxCell>
        <mxCell id="3ehIjHs2K8UcwK9uWAea-58" value="STARTUP COST" style="shape=table;startSize=30;container=1;collapsible=1;childLayout=tableLayout;fixedRows=1;rowLines=0;fontStyle=1;align=center;resizeLast=1;labelBackgroundColor=none;fillColor=#FAE5C7;strokeColor=#0F8B8D;fontColor=#143642;" parent="1" vertex="1">
          <mxGeometry x="24.5" y="510" width="175.5" height="210" as="geometry" />
        </mxCell>
        <mxCell id="3ehIjHs2K8UcwK9uWAea-59" value="" style="shape=partialRectangle;collapsible=0;dropTarget=0;pointerEvents=0;fillColor=none;points=[[0,0.5],[1,0.5]];portConstraint=eastwest;top=0;left=0;right=0;bottom=1;labelBackgroundColor=none;strokeColor=#0F8B8D;fontColor=#143642;" parent="3ehIjHs2K8UcwK9uWAea-58" vertex="1">
          <mxGeometry y="30" width="175.5" height="30" as="geometry" />
        </mxCell>
        <mxCell id="3ehIjHs2K8UcwK9uWAea-60" value="PK" style="shape=partialRectangle;overflow=hidden;connectable=0;fillColor=none;top=0;left=0;bottom=0;right=0;fontStyle=1;labelBackgroundColor=none;strokeColor=#0F8B8D;fontColor=#143642;" parent="3ehIjHs2K8UcwK9uWAea-59" vertex="1">
          <mxGeometry width="30" height="30" as="geometry">
            <mxRectangle width="30" height="30" as="alternateBounds" />
          </mxGeometry>
        </mxCell>
        <mxCell id="3ehIjHs2K8UcwK9uWAea-61" value="COST_ID" style="shape=partialRectangle;overflow=hidden;connectable=0;fillColor=none;top=0;left=0;bottom=0;right=0;align=left;spacingLeft=6;fontStyle=5;labelBackgroundColor=none;strokeColor=#0F8B8D;fontColor=#143642;" parent="3ehIjHs2K8UcwK9uWAea-59" vertex="1">
          <mxGeometry x="30" width="145.5" height="30" as="geometry">
            <mxRectangle width="145.5" height="30" as="alternateBounds" />
          </mxGeometry>
        </mxCell>
        <mxCell id="3ehIjHs2K8UcwK9uWAea-84" value="" style="shape=partialRectangle;collapsible=0;dropTarget=0;pointerEvents=0;fillColor=none;points=[[0,0.5],[1,0.5]];portConstraint=eastwest;top=0;left=0;right=0;bottom=0;labelBackgroundColor=none;strokeColor=#0F8B8D;fontColor=#143642;" parent="3ehIjHs2K8UcwK9uWAea-58" vertex="1">
          <mxGeometry y="60" width="175.5" height="30" as="geometry" />
        </mxCell>
        <mxCell id="3ehIjHs2K8UcwK9uWAea-85" value="" style="shape=partialRectangle;overflow=hidden;connectable=0;fillColor=none;top=0;left=0;bottom=0;right=0;labelBackgroundColor=none;strokeColor=#0F8B8D;fontColor=#143642;" parent="3ehIjHs2K8UcwK9uWAea-84" vertex="1">
          <mxGeometry width="30" height="30" as="geometry">
            <mxRectangle width="30" height="30" as="alternateBounds" />
          </mxGeometry>
        </mxCell>
        <mxCell id="3ehIjHs2K8UcwK9uWAea-86" value="COST_TYPE" style="shape=partialRectangle;overflow=hidden;connectable=0;fillColor=none;top=0;left=0;bottom=0;right=0;align=left;spacingLeft=6;labelBackgroundColor=none;strokeColor=#0F8B8D;fontColor=#143642;" parent="3ehIjHs2K8UcwK9uWAea-84" vertex="1">
          <mxGeometry x="30" width="145.5" height="30" as="geometry">
            <mxRectangle width="145.5" height="30" as="alternateBounds" />
          </mxGeometry>
        </mxCell>
        <mxCell id="3ehIjHs2K8UcwK9uWAea-81" value="" style="shape=partialRectangle;collapsible=0;dropTarget=0;pointerEvents=0;fillColor=none;points=[[0,0.5],[1,0.5]];portConstraint=eastwest;top=0;left=0;right=0;bottom=0;labelBackgroundColor=none;strokeColor=#0F8B8D;fontColor=#143642;" parent="3ehIjHs2K8UcwK9uWAea-58" vertex="1">
          <mxGeometry y="90" width="175.5" height="30" as="geometry" />
        </mxCell>
        <mxCell id="3ehIjHs2K8UcwK9uWAea-82" value="" style="shape=partialRectangle;overflow=hidden;connectable=0;fillColor=none;top=0;left=0;bottom=0;right=0;labelBackgroundColor=none;strokeColor=#0F8B8D;fontColor=#143642;" parent="3ehIjHs2K8UcwK9uWAea-81" vertex="1">
          <mxGeometry width="30" height="30" as="geometry">
            <mxRectangle width="30" height="30" as="alternateBounds" />
          </mxGeometry>
        </mxCell>
        <mxCell id="3ehIjHs2K8UcwK9uWAea-83" value="AMOUNT" style="shape=partialRectangle;overflow=hidden;connectable=0;fillColor=none;top=0;left=0;bottom=0;right=0;align=left;spacingLeft=6;labelBackgroundColor=none;strokeColor=#0F8B8D;fontColor=#143642;" parent="3ehIjHs2K8UcwK9uWAea-81" vertex="1">
          <mxGeometry x="30" width="145.5" height="30" as="geometry">
            <mxRectangle width="145.5" height="30" as="alternateBounds" />
          </mxGeometry>
        </mxCell>
        <mxCell id="CH8Q1lonQJTsU_onpGBQ-28" value="" style="shape=partialRectangle;collapsible=0;dropTarget=0;pointerEvents=0;fillColor=none;points=[[0,0.5],[1,0.5]];portConstraint=eastwest;top=0;left=0;right=0;bottom=0;labelBackgroundColor=none;strokeColor=#0F8B8D;fontColor=#143642;" parent="3ehIjHs2K8UcwK9uWAea-58" vertex="1">
          <mxGeometry y="120" width="175.5" height="30" as="geometry" />
        </mxCell>
        <mxCell id="CH8Q1lonQJTsU_onpGBQ-29" value="" style="shape=partialRectangle;overflow=hidden;connectable=0;fillColor=none;top=0;left=0;bottom=0;right=0;labelBackgroundColor=none;strokeColor=#0F8B8D;fontColor=#143642;" parent="CH8Q1lonQJTsU_onpGBQ-28" vertex="1">
          <mxGeometry width="30" height="30" as="geometry">
            <mxRectangle width="30" height="30" as="alternateBounds" />
          </mxGeometry>
        </mxCell>
        <mxCell id="CH8Q1lonQJTsU_onpGBQ-30" value="DATE_PAID" style="shape=partialRectangle;overflow=hidden;connectable=0;fillColor=none;top=0;left=0;bottom=0;right=0;align=left;spacingLeft=6;labelBackgroundColor=none;strokeColor=#0F8B8D;fontColor=#143642;" parent="CH8Q1lonQJTsU_onpGBQ-28" vertex="1">
          <mxGeometry x="30" width="145.5" height="30" as="geometry">
            <mxRectangle width="145.5" height="30" as="alternateBounds" />
          </mxGeometry>
        </mxCell>
        <mxCell id="CH8Q1lonQJTsU_onpGBQ-31" value="" style="shape=partialRectangle;collapsible=0;dropTarget=0;pointerEvents=0;fillColor=none;points=[[0,0.5],[1,0.5]];portConstraint=eastwest;top=0;left=0;right=0;bottom=0;labelBackgroundColor=none;strokeColor=#0F8B8D;fontColor=#143642;" parent="3ehIjHs2K8UcwK9uWAea-58" vertex="1">
          <mxGeometry y="150" width="175.5" height="30" as="geometry" />
        </mxCell>
        <mxCell id="CH8Q1lonQJTsU_onpGBQ-32" value="FK1" style="shape=partialRectangle;overflow=hidden;connectable=0;fillColor=none;top=0;left=0;bottom=0;right=0;labelBackgroundColor=none;strokeColor=#0F8B8D;fontColor=#143642;" parent="CH8Q1lonQJTsU_onpGBQ-31" vertex="1">
          <mxGeometry width="30" height="30" as="geometry">
            <mxRectangle width="30" height="30" as="alternateBounds" />
          </mxGeometry>
        </mxCell>
        <mxCell id="CH8Q1lonQJTsU_onpGBQ-33" value="BANK_NAME" style="shape=partialRectangle;overflow=hidden;connectable=0;fillColor=none;top=0;left=0;bottom=0;right=0;align=left;spacingLeft=6;labelBackgroundColor=none;strokeColor=#0F8B8D;fontColor=#143642;" parent="CH8Q1lonQJTsU_onpGBQ-31" vertex="1">
          <mxGeometry x="30" width="145.5" height="30" as="geometry">
            <mxRectangle width="145.5" height="30" as="alternateBounds" />
          </mxGeometry>
        </mxCell>
        <mxCell id="XAgKRtzbgoDLWBsCESKd-1" value="" style="shape=partialRectangle;collapsible=0;dropTarget=0;pointerEvents=0;fillColor=none;points=[[0,0.5],[1,0.5]];portConstraint=eastwest;top=0;left=0;right=0;bottom=0;labelBackgroundColor=none;strokeColor=#0F8B8D;fontColor=#143642;" parent="3ehIjHs2K8UcwK9uWAea-58" vertex="1">
          <mxGeometry y="180" width="175.5" height="30" as="geometry" />
        </mxCell>
        <mxCell id="XAgKRtzbgoDLWBsCESKd-2" value="FK1" style="shape=partialRectangle;overflow=hidden;connectable=0;fillColor=none;top=0;left=0;bottom=0;right=0;labelBackgroundColor=none;strokeColor=#0F8B8D;fontColor=#143642;" parent="XAgKRtzbgoDLWBsCESKd-1" vertex="1">
          <mxGeometry width="30" height="30" as="geometry">
            <mxRectangle width="30" height="30" as="alternateBounds" />
          </mxGeometry>
        </mxCell>
        <mxCell id="XAgKRtzbgoDLWBsCESKd-3" value="ACCT_ROUTING_NUM" style="shape=partialRectangle;overflow=hidden;connectable=0;fillColor=none;top=0;left=0;bottom=0;right=0;align=left;spacingLeft=6;labelBackgroundColor=none;strokeColor=#0F8B8D;fontColor=#143642;" parent="XAgKRtzbgoDLWBsCESKd-1" vertex="1">
          <mxGeometry x="30" width="145.5" height="30" as="geometry">
            <mxRectangle width="145.5" height="30" as="alternateBounds" />
          </mxGeometry>
        </mxCell>
        <mxCell id="3ehIjHs2K8UcwK9uWAea-71" value="Pays for" style="text;html=1;align=center;verticalAlign=middle;whiteSpace=wrap;rounded=0;fontColor=#143642;" parent="1" vertex="1">
          <mxGeometry x="240" y="420" width="60" height="30" as="geometry" />
        </mxCell>
        <mxCell id="3ehIjHs2K8UcwK9uWAea-87" value="" style="endArrow=ERzeroToMany;startArrow=ERmandOne;endFill=0;startFill=0;labelBackgroundColor=none;strokeColor=#A8201A;fontColor=default;entryX=0.856;entryY=-0.004;entryDx=0;entryDy=0;entryPerimeter=0;strokeWidth=3;edgeStyle=elbowEdgeStyle;elbow=vertical;exitX=0.055;exitY=1.02;exitDx=0;exitDy=0;exitPerimeter=0;" parent="1" source="i1sRRSghRIqchWh4v-Ae-57" edge="1" target="3ehIjHs2K8UcwK9uWAea-58">
          <mxGeometry width="100" height="100" relative="1" as="geometry">
            <mxPoint x="377.67" y="290" as="sourcePoint" />
            <mxPoint x="39.99899999999995" y="510.4200000000001" as="targetPoint" />
            <Array as="points">
              <mxPoint x="222.67000000000002" y="450" />
            </Array>
          </mxGeometry>
        </mxCell>
        <mxCell id="0HSMD2Hgdb4bcQWk6r_O-5" value="CLINIC BANK ACCOUNT" style="shape=table;startSize=30;container=1;collapsible=1;childLayout=tableLayout;fixedRows=1;rowLines=0;fontStyle=1;align=center;resizeLast=1;labelBackgroundColor=none;fillColor=#FAE5C7;strokeColor=#0F8B8D;fontColor=#143642;" parent="1" vertex="1">
          <mxGeometry x="330" y="140" width="200" height="190" as="geometry" />
        </mxCell>
        <mxCell id="0HSMD2Hgdb4bcQWk6r_O-6" value="" style="shape=partialRectangle;collapsible=0;dropTarget=0;pointerEvents=0;fillColor=none;points=[[0,0.5],[1,0.5]];portConstraint=eastwest;top=0;left=0;right=0;bottom=1;labelBackgroundColor=none;strokeColor=#0F8B8D;fontColor=#143642;" parent="0HSMD2Hgdb4bcQWk6r_O-5" vertex="1">
          <mxGeometry y="30" width="200" height="40" as="geometry" />
        </mxCell>
        <mxCell id="0HSMD2Hgdb4bcQWk6r_O-7" value="PK&#xa;PK" style="shape=partialRectangle;overflow=hidden;connectable=0;fillColor=none;top=0;left=0;bottom=0;right=0;fontStyle=1;labelBackgroundColor=none;strokeColor=#0F8B8D;fontColor=#143642;" parent="0HSMD2Hgdb4bcQWk6r_O-6" vertex="1">
          <mxGeometry width="30" height="40" as="geometry">
            <mxRectangle width="30" height="40" as="alternateBounds" />
          </mxGeometry>
        </mxCell>
        <mxCell id="0HSMD2Hgdb4bcQWk6r_O-8" value="BANK_NAME&#xa;ACCT_ROUTING_NUM" style="shape=partialRectangle;overflow=hidden;connectable=0;fillColor=none;top=0;left=0;bottom=0;right=0;align=left;spacingLeft=6;fontStyle=5;labelBackgroundColor=none;strokeColor=#0F8B8D;fontColor=#143642;" parent="0HSMD2Hgdb4bcQWk6r_O-6" vertex="1">
          <mxGeometry x="30" width="170" height="40" as="geometry">
            <mxRectangle width="170" height="40" as="alternateBounds" />
          </mxGeometry>
        </mxCell>
        <mxCell id="0HSMD2Hgdb4bcQWk6r_O-91" value="" style="shape=partialRectangle;collapsible=0;dropTarget=0;pointerEvents=0;fillColor=none;points=[[0,0.5],[1,0.5]];portConstraint=eastwest;top=0;left=0;right=0;bottom=0;labelBackgroundColor=none;strokeColor=#0F8B8D;fontColor=#143642;" parent="0HSMD2Hgdb4bcQWk6r_O-5" vertex="1">
          <mxGeometry y="70" width="200" height="30" as="geometry" />
        </mxCell>
        <mxCell id="0HSMD2Hgdb4bcQWk6r_O-92" value="" style="shape=partialRectangle;overflow=hidden;connectable=0;fillColor=none;top=0;left=0;bottom=0;right=0;labelBackgroundColor=none;strokeColor=#0F8B8D;fontColor=#143642;" parent="0HSMD2Hgdb4bcQWk6r_O-91" vertex="1">
          <mxGeometry width="30" height="30" as="geometry">
            <mxRectangle width="30" height="30" as="alternateBounds" />
          </mxGeometry>
        </mxCell>
        <mxCell id="0HSMD2Hgdb4bcQWk6r_O-93" value="CURRENT_BALANCE" style="shape=partialRectangle;overflow=hidden;connectable=0;fillColor=none;top=0;left=0;bottom=0;right=0;align=left;spacingLeft=6;labelBackgroundColor=none;strokeColor=#0F8B8D;fontColor=#143642;" parent="0HSMD2Hgdb4bcQWk6r_O-91" vertex="1">
          <mxGeometry x="30" width="170" height="30" as="geometry">
            <mxRectangle width="170" height="30" as="alternateBounds" />
          </mxGeometry>
        </mxCell>
        <mxCell id="XAgKRtzbgoDLWBsCESKd-5" value="" style="shape=partialRectangle;collapsible=0;dropTarget=0;pointerEvents=0;fillColor=none;points=[[0,0.5],[1,0.5]];portConstraint=eastwest;top=0;left=0;right=0;bottom=0;labelBackgroundColor=none;strokeColor=#0F8B8D;fontColor=#143642;" parent="0HSMD2Hgdb4bcQWk6r_O-5" vertex="1">
          <mxGeometry y="100" width="200" height="30" as="geometry" />
        </mxCell>
        <mxCell id="XAgKRtzbgoDLWBsCESKd-6" value="" style="shape=partialRectangle;overflow=hidden;connectable=0;fillColor=none;top=0;left=0;bottom=0;right=0;labelBackgroundColor=none;strokeColor=#0F8B8D;fontColor=#143642;" parent="XAgKRtzbgoDLWBsCESKd-5" vertex="1">
          <mxGeometry width="30" height="30" as="geometry">
            <mxRectangle width="30" height="30" as="alternateBounds" />
          </mxGeometry>
        </mxCell>
        <mxCell id="XAgKRtzbgoDLWBsCESKd-7" value="ACCOUNT_TYPE" style="shape=partialRectangle;overflow=hidden;connectable=0;fillColor=none;top=0;left=0;bottom=0;right=0;align=left;spacingLeft=6;labelBackgroundColor=none;strokeColor=#0F8B8D;fontColor=#143642;" parent="XAgKRtzbgoDLWBsCESKd-5" vertex="1">
          <mxGeometry x="30" width="170" height="30" as="geometry">
            <mxRectangle width="170" height="30" as="alternateBounds" />
          </mxGeometry>
        </mxCell>
        <mxCell id="XAgKRtzbgoDLWBsCESKd-8" value="" style="shape=partialRectangle;collapsible=0;dropTarget=0;pointerEvents=0;fillColor=none;points=[[0,0.5],[1,0.5]];portConstraint=eastwest;top=0;left=0;right=0;bottom=0;labelBackgroundColor=none;strokeColor=#0F8B8D;fontColor=#143642;" parent="0HSMD2Hgdb4bcQWk6r_O-5" vertex="1">
          <mxGeometry y="130" width="200" height="30" as="geometry" />
        </mxCell>
        <mxCell id="XAgKRtzbgoDLWBsCESKd-9" value="" style="shape=partialRectangle;overflow=hidden;connectable=0;fillColor=none;top=0;left=0;bottom=0;right=0;labelBackgroundColor=none;strokeColor=#0F8B8D;fontColor=#143642;" parent="XAgKRtzbgoDLWBsCESKd-8" vertex="1">
          <mxGeometry width="30" height="30" as="geometry">
            <mxRectangle width="30" height="30" as="alternateBounds" />
          </mxGeometry>
        </mxCell>
        <mxCell id="XAgKRtzbgoDLWBsCESKd-10" value="FUNDING_SOURCE" style="shape=partialRectangle;overflow=hidden;connectable=0;fillColor=none;top=0;left=0;bottom=0;right=0;align=left;spacingLeft=6;labelBackgroundColor=none;strokeColor=#0F8B8D;fontColor=#143642;" parent="XAgKRtzbgoDLWBsCESKd-8" vertex="1">
          <mxGeometry x="30" width="170" height="30" as="geometry">
            <mxRectangle width="170" height="30" as="alternateBounds" />
          </mxGeometry>
        </mxCell>
        <mxCell id="i1sRRSghRIqchWh4v-Ae-57" value="" style="shape=partialRectangle;collapsible=0;dropTarget=0;pointerEvents=0;fillColor=none;points=[[0,0.5],[1,0.5]];portConstraint=eastwest;top=0;left=0;right=0;bottom=0;labelBackgroundColor=none;strokeColor=#0F8B8D;fontColor=#143642;" vertex="1" parent="0HSMD2Hgdb4bcQWk6r_O-5">
          <mxGeometry y="160" width="200" height="30" as="geometry" />
        </mxCell>
        <mxCell id="i1sRRSghRIqchWh4v-Ae-58" value="" style="shape=partialRectangle;overflow=hidden;connectable=0;fillColor=none;top=0;left=0;bottom=0;right=0;labelBackgroundColor=none;strokeColor=#0F8B8D;fontColor=#143642;" vertex="1" parent="i1sRRSghRIqchWh4v-Ae-57">
          <mxGeometry width="30" height="30" as="geometry">
            <mxRectangle width="30" height="30" as="alternateBounds" />
          </mxGeometry>
        </mxCell>
        <mxCell id="i1sRRSghRIqchWh4v-Ae-59" value="DAILY_BILLABLE_INCOME" style="shape=partialRectangle;overflow=hidden;connectable=0;fillColor=none;top=0;left=0;bottom=0;right=0;align=left;spacingLeft=6;labelBackgroundColor=none;strokeColor=#0F8B8D;fontColor=#143642;" vertex="1" parent="i1sRRSghRIqchWh4v-Ae-57">
          <mxGeometry x="30" width="170" height="30" as="geometry">
            <mxRectangle width="170" height="30" as="alternateBounds" />
          </mxGeometry>
        </mxCell>
        <mxCell id="0HSMD2Hgdb4bcQWk6r_O-30" value="" style="endArrow=ERzeroToMany;startArrow=ERmandOne;endFill=0;startFill=0;labelBackgroundColor=none;strokeColor=#A8201A;fontColor=default;strokeWidth=3;entryX=1;entryY=0.5;entryDx=0;entryDy=0;" parent="1" edge="1">
          <mxGeometry width="100" height="100" relative="1" as="geometry">
            <mxPoint x="330" y="190" as="sourcePoint" />
            <mxPoint x="230" y="190" as="targetPoint" />
          </mxGeometry>
        </mxCell>
        <mxCell id="0HSMD2Hgdb4bcQWk6r_O-31" value="Pays installments for" style="text;html=1;align=center;verticalAlign=middle;whiteSpace=wrap;rounded=0;fontColor=#143642;" parent="1" vertex="1">
          <mxGeometry x="250" y="140" width="60" height="30" as="geometry" />
        </mxCell>
        <mxCell id="0HSMD2Hgdb4bcQWk6r_O-43" value="" style="endArrow=ERmandOne;startArrow=ERzeroToMany;endFill=0;startFill=0;labelBackgroundColor=none;strokeColor=#A8201A;fontColor=default;strokeWidth=3;" parent="1" edge="1">
          <mxGeometry width="100" height="100" relative="1" as="geometry">
            <mxPoint x="600" y="200" as="sourcePoint" />
            <mxPoint x="530" y="200" as="targetPoint" />
          </mxGeometry>
        </mxCell>
        <mxCell id="0HSMD2Hgdb4bcQWk6r_O-63" value="" style="endArrow=ERzeroToMany;startArrow=ERmandOne;endFill=0;startFill=0;labelBackgroundColor=none;strokeColor=#A8201A;fontColor=default;strokeWidth=3;entryX=0.077;entryY=0;entryDx=0;entryDy=0;entryPerimeter=0;" parent="1" target="C-vyLk0tnHw3VtMMgP7b-13" edge="1">
          <mxGeometry width="100" height="100" relative="1" as="geometry">
            <mxPoint x="511" y="330" as="sourcePoint" />
            <mxPoint x="510" y="410" as="targetPoint" />
          </mxGeometry>
        </mxCell>
        <mxCell id="0HSMD2Hgdb4bcQWk6r_O-71" value="Pays salary for" style="text;html=1;align=center;verticalAlign=middle;whiteSpace=wrap;rounded=0;fontColor=#143642;" parent="1" vertex="1">
          <mxGeometry x="530" y="160" width="60" height="30" as="geometry" />
        </mxCell>
        <mxCell id="0HSMD2Hgdb4bcQWk6r_O-89" value="Receives payment from" style="text;html=1;align=center;verticalAlign=middle;whiteSpace=wrap;rounded=0;" parent="1" vertex="1">
          <mxGeometry x="450" y="370" width="60" height="30" as="geometry" />
        </mxCell>
        <mxCell id="XAgKRtzbgoDLWBsCESKd-36" value="" style="endArrow=ERoneToMany;startArrow=ERzeroToMany;endFill=0;startFill=0;labelBackgroundColor=none;strokeColor=#A8201A;fontColor=default;strokeWidth=3;edgeStyle=elbowEdgeStyle;" parent="1" source="CH8Q1lonQJTsU_onpGBQ-38" edge="1">
          <mxGeometry width="100" height="100" relative="1" as="geometry">
            <mxPoint x="930" y="450" as="sourcePoint" />
            <mxPoint x="800" y="470" as="targetPoint" />
            <Array as="points">
              <mxPoint x="800" y="630" />
              <mxPoint x="940" y="350" />
            </Array>
          </mxGeometry>
        </mxCell>
        <mxCell id="XAgKRtzbgoDLWBsCESKd-143" value="" style="endArrow=ERzeroToOne;startArrow=ERoneToMany;endFill=0;startFill=0;labelBackgroundColor=none;strokeColor=#A8201A;fontColor=default;strokeWidth=3;edgeStyle=orthogonalEdgeStyle;exitX=-0.006;exitY=-0.067;exitDx=0;exitDy=0;exitPerimeter=0;entryX=0.713;entryY=-0.007;entryDx=0;entryDy=0;entryPerimeter=0;" parent="1" edge="1">
          <mxGeometry width="100" height="100" relative="1" as="geometry">
            <mxPoint x="490.00000000000006" y="527.99" as="sourcePoint" />
            <mxPoint x="409.81" y="558.81" as="targetPoint" />
          </mxGeometry>
        </mxCell>
        <mxCell id="XAgKRtzbgoDLWBsCESKd-144" value="Is charged through" style="text;html=1;align=center;verticalAlign=middle;whiteSpace=wrap;rounded=0;" parent="1" vertex="1">
          <mxGeometry x="420" y="490" width="60" height="30" as="geometry" />
        </mxCell>
        <mxCell id="CH8Q1lonQJTsU_onpGBQ-38" value="PATIENT" style="shape=table;startSize=30;container=1;collapsible=1;childLayout=tableLayout;fixedRows=1;rowLines=0;fontStyle=1;align=center;resizeLast=1;labelBackgroundColor=none;fillColor=#FAE5C7;strokeColor=#0F8B8D;fontColor=#143642;" parent="1" vertex="1">
          <mxGeometry x="780" y="610" width="270" height="260" as="geometry" />
        </mxCell>
        <mxCell id="CH8Q1lonQJTsU_onpGBQ-39" value="" style="shape=partialRectangle;collapsible=0;dropTarget=0;pointerEvents=0;fillColor=none;points=[[0,0.5],[1,0.5]];portConstraint=eastwest;top=0;left=0;right=0;bottom=1;labelBackgroundColor=none;strokeColor=#0F8B8D;fontColor=#143642;" parent="CH8Q1lonQJTsU_onpGBQ-38" vertex="1">
          <mxGeometry y="30" width="270" height="50" as="geometry" />
        </mxCell>
        <mxCell id="CH8Q1lonQJTsU_onpGBQ-40" value="PK&#xa;PK&#xa;PK,FK1" style="shape=partialRectangle;overflow=hidden;connectable=0;fillColor=none;top=0;left=0;bottom=0;right=0;fontStyle=1;labelBackgroundColor=none;strokeColor=#0F8B8D;fontColor=#143642;" parent="CH8Q1lonQJTsU_onpGBQ-39" vertex="1">
          <mxGeometry width="50" height="50" as="geometry">
            <mxRectangle width="50" height="50" as="alternateBounds" />
          </mxGeometry>
        </mxCell>
        <mxCell id="CH8Q1lonQJTsU_onpGBQ-41" value="PATIENT_ID&#xa;PROCEDURE_CODE&#xa;EMPLOYEE_ID" style="shape=partialRectangle;overflow=hidden;connectable=0;fillColor=none;top=0;left=0;bottom=0;right=0;align=left;spacingLeft=6;fontStyle=5;labelBackgroundColor=none;strokeColor=#0F8B8D;fontColor=#143642;" parent="CH8Q1lonQJTsU_onpGBQ-39" vertex="1">
          <mxGeometry x="50" width="220" height="50" as="geometry">
            <mxRectangle width="220" height="50" as="alternateBounds" />
          </mxGeometry>
        </mxCell>
        <mxCell id="CH8Q1lonQJTsU_onpGBQ-42" value="" style="shape=partialRectangle;collapsible=0;dropTarget=0;pointerEvents=0;fillColor=none;points=[[0,0.5],[1,0.5]];portConstraint=eastwest;top=0;left=0;right=0;bottom=0;labelBackgroundColor=none;strokeColor=#0F8B8D;fontColor=#143642;" parent="CH8Q1lonQJTsU_onpGBQ-38" vertex="1">
          <mxGeometry y="80" width="270" height="30" as="geometry" />
        </mxCell>
        <mxCell id="CH8Q1lonQJTsU_onpGBQ-43" value="" style="shape=partialRectangle;overflow=hidden;connectable=0;fillColor=none;top=0;left=0;bottom=0;right=0;labelBackgroundColor=none;strokeColor=#0F8B8D;fontColor=#143642;" parent="CH8Q1lonQJTsU_onpGBQ-42" vertex="1">
          <mxGeometry width="50" height="30" as="geometry">
            <mxRectangle width="50" height="30" as="alternateBounds" />
          </mxGeometry>
        </mxCell>
        <mxCell id="CH8Q1lonQJTsU_onpGBQ-44" value="FIRST_NAME" style="shape=partialRectangle;overflow=hidden;connectable=0;fillColor=none;top=0;left=0;bottom=0;right=0;align=left;spacingLeft=6;labelBackgroundColor=none;strokeColor=#0F8B8D;fontColor=#143642;" parent="CH8Q1lonQJTsU_onpGBQ-42" vertex="1">
          <mxGeometry x="50" width="220" height="30" as="geometry">
            <mxRectangle width="220" height="30" as="alternateBounds" />
          </mxGeometry>
        </mxCell>
        <mxCell id="CH8Q1lonQJTsU_onpGBQ-45" value="" style="shape=partialRectangle;collapsible=0;dropTarget=0;pointerEvents=0;fillColor=none;points=[[0,0.5],[1,0.5]];portConstraint=eastwest;top=0;left=0;right=0;bottom=0;labelBackgroundColor=none;strokeColor=#0F8B8D;fontColor=#143642;" parent="CH8Q1lonQJTsU_onpGBQ-38" vertex="1">
          <mxGeometry y="110" width="270" height="30" as="geometry" />
        </mxCell>
        <mxCell id="CH8Q1lonQJTsU_onpGBQ-46" value="" style="shape=partialRectangle;overflow=hidden;connectable=0;fillColor=none;top=0;left=0;bottom=0;right=0;labelBackgroundColor=none;strokeColor=#0F8B8D;fontColor=#143642;" parent="CH8Q1lonQJTsU_onpGBQ-45" vertex="1">
          <mxGeometry width="50" height="30" as="geometry">
            <mxRectangle width="50" height="30" as="alternateBounds" />
          </mxGeometry>
        </mxCell>
        <mxCell id="CH8Q1lonQJTsU_onpGBQ-47" value="LAST_NAME" style="shape=partialRectangle;overflow=hidden;connectable=0;fillColor=none;top=0;left=0;bottom=0;right=0;align=left;spacingLeft=6;labelBackgroundColor=none;strokeColor=#0F8B8D;fontColor=#143642;" parent="CH8Q1lonQJTsU_onpGBQ-45" vertex="1">
          <mxGeometry x="50" width="220" height="30" as="geometry">
            <mxRectangle width="220" height="30" as="alternateBounds" />
          </mxGeometry>
        </mxCell>
        <mxCell id="CH8Q1lonQJTsU_onpGBQ-48" value="" style="shape=partialRectangle;collapsible=0;dropTarget=0;pointerEvents=0;fillColor=none;points=[[0,0.5],[1,0.5]];portConstraint=eastwest;top=0;left=0;right=0;bottom=0;labelBackgroundColor=none;strokeColor=#0F8B8D;fontColor=#143642;" parent="CH8Q1lonQJTsU_onpGBQ-38" vertex="1">
          <mxGeometry y="140" width="270" height="30" as="geometry" />
        </mxCell>
        <mxCell id="CH8Q1lonQJTsU_onpGBQ-49" value="" style="shape=partialRectangle;overflow=hidden;connectable=0;fillColor=none;top=0;left=0;bottom=0;right=0;labelBackgroundColor=none;strokeColor=#0F8B8D;fontColor=#143642;" parent="CH8Q1lonQJTsU_onpGBQ-48" vertex="1">
          <mxGeometry width="50" height="30" as="geometry">
            <mxRectangle width="50" height="30" as="alternateBounds" />
          </mxGeometry>
        </mxCell>
        <mxCell id="CH8Q1lonQJTsU_onpGBQ-50" value="HOME_ADDRESS" style="shape=partialRectangle;overflow=hidden;connectable=0;fillColor=none;top=0;left=0;bottom=0;right=0;align=left;spacingLeft=6;labelBackgroundColor=none;strokeColor=#0F8B8D;fontColor=#143642;" parent="CH8Q1lonQJTsU_onpGBQ-48" vertex="1">
          <mxGeometry x="50" width="220" height="30" as="geometry">
            <mxRectangle width="220" height="30" as="alternateBounds" />
          </mxGeometry>
        </mxCell>
        <mxCell id="CH8Q1lonQJTsU_onpGBQ-51" value="" style="shape=partialRectangle;collapsible=0;dropTarget=0;pointerEvents=0;fillColor=none;points=[[0,0.5],[1,0.5]];portConstraint=eastwest;top=0;left=0;right=0;bottom=0;labelBackgroundColor=none;strokeColor=#0F8B8D;fontColor=#143642;" parent="CH8Q1lonQJTsU_onpGBQ-38" vertex="1">
          <mxGeometry y="170" width="270" height="30" as="geometry" />
        </mxCell>
        <mxCell id="CH8Q1lonQJTsU_onpGBQ-52" value="" style="shape=partialRectangle;overflow=hidden;connectable=0;fillColor=none;top=0;left=0;bottom=0;right=0;labelBackgroundColor=none;strokeColor=#0F8B8D;fontColor=#143642;" parent="CH8Q1lonQJTsU_onpGBQ-51" vertex="1">
          <mxGeometry width="50" height="30" as="geometry">
            <mxRectangle width="50" height="30" as="alternateBounds" />
          </mxGeometry>
        </mxCell>
        <mxCell id="CH8Q1lonQJTsU_onpGBQ-53" value="PHONE_NUMBER" style="shape=partialRectangle;overflow=hidden;connectable=0;fillColor=none;top=0;left=0;bottom=0;right=0;align=left;spacingLeft=6;labelBackgroundColor=none;strokeColor=#0F8B8D;fontColor=#143642;" parent="CH8Q1lonQJTsU_onpGBQ-51" vertex="1">
          <mxGeometry x="50" width="220" height="30" as="geometry">
            <mxRectangle width="220" height="30" as="alternateBounds" />
          </mxGeometry>
        </mxCell>
        <mxCell id="CH8Q1lonQJTsU_onpGBQ-83" value="" style="shape=partialRectangle;collapsible=0;dropTarget=0;pointerEvents=0;fillColor=none;points=[[0,0.5],[1,0.5]];portConstraint=eastwest;top=0;left=0;right=0;bottom=0;labelBackgroundColor=none;strokeColor=#0F8B8D;fontColor=#143642;" parent="CH8Q1lonQJTsU_onpGBQ-38" vertex="1">
          <mxGeometry y="200" width="270" height="30" as="geometry" />
        </mxCell>
        <mxCell id="CH8Q1lonQJTsU_onpGBQ-84" value="" style="shape=partialRectangle;overflow=hidden;connectable=0;fillColor=none;top=0;left=0;bottom=0;right=0;labelBackgroundColor=none;strokeColor=#0F8B8D;fontColor=#143642;" parent="CH8Q1lonQJTsU_onpGBQ-83" vertex="1">
          <mxGeometry width="50" height="30" as="geometry">
            <mxRectangle width="50" height="30" as="alternateBounds" />
          </mxGeometry>
        </mxCell>
        <mxCell id="CH8Q1lonQJTsU_onpGBQ-85" value="TREATMENT_TYPE" style="shape=partialRectangle;overflow=hidden;connectable=0;fillColor=none;top=0;left=0;bottom=0;right=0;align=left;spacingLeft=6;labelBackgroundColor=none;strokeColor=#0F8B8D;fontColor=#143642;" parent="CH8Q1lonQJTsU_onpGBQ-83" vertex="1">
          <mxGeometry x="50" width="220" height="30" as="geometry">
            <mxRectangle width="220" height="30" as="alternateBounds" />
          </mxGeometry>
        </mxCell>
        <mxCell id="CH8Q1lonQJTsU_onpGBQ-78" value="" style="shape=partialRectangle;collapsible=0;dropTarget=0;pointerEvents=0;fillColor=none;points=[[0,0.5],[1,0.5]];portConstraint=eastwest;top=0;left=0;right=0;bottom=0;labelBackgroundColor=none;strokeColor=#0F8B8D;fontColor=#143642;" parent="CH8Q1lonQJTsU_onpGBQ-38" vertex="1">
          <mxGeometry y="230" width="270" height="30" as="geometry" />
        </mxCell>
        <mxCell id="CH8Q1lonQJTsU_onpGBQ-79" value="" style="shape=partialRectangle;overflow=hidden;connectable=0;fillColor=none;top=0;left=0;bottom=0;right=0;labelBackgroundColor=none;strokeColor=#0F8B8D;fontColor=#143642;" parent="CH8Q1lonQJTsU_onpGBQ-78" vertex="1">
          <mxGeometry width="50" height="30" as="geometry">
            <mxRectangle width="50" height="30" as="alternateBounds" />
          </mxGeometry>
        </mxCell>
        <mxCell id="CH8Q1lonQJTsU_onpGBQ-80" value="SCHEDULING_STATE" style="shape=partialRectangle;overflow=hidden;connectable=0;fillColor=none;top=0;left=0;bottom=0;right=0;align=left;spacingLeft=6;labelBackgroundColor=none;strokeColor=#0F8B8D;fontColor=#143642;" parent="CH8Q1lonQJTsU_onpGBQ-78" vertex="1">
          <mxGeometry x="50" width="220" height="30" as="geometry">
            <mxRectangle width="220" height="30" as="alternateBounds" />
          </mxGeometry>
        </mxCell>
        <mxCell id="CH8Q1lonQJTsU_onpGBQ-81" value="" style="endArrow=ERmandOne;startArrow=ERoneToMany;endFill=0;startFill=0;labelBackgroundColor=none;strokeColor=#A8201A;fontColor=default;strokeWidth=3;edgeStyle=elbowEdgeStyle;entryX=0;entryY=-0.052;entryDx=0;entryDy=0;entryPerimeter=0;" parent="1" edge="1">
          <mxGeometry width="100" height="100" relative="1" as="geometry">
            <mxPoint x="670" y="830" as="sourcePoint" />
            <mxPoint x="780" y="848.44" as="targetPoint" />
            <Array as="points">
              <mxPoint x="670" y="875.23" />
              <mxPoint x="904.79" y="744.12" />
            </Array>
          </mxGeometry>
        </mxCell>
        <mxCell id="CH8Q1lonQJTsU_onpGBQ-82" value="Is charged through" style="text;html=1;align=center;verticalAlign=middle;whiteSpace=wrap;rounded=0;" parent="1" vertex="1">
          <mxGeometry x="550" y="830" width="120" height="30" as="geometry" />
        </mxCell>
        <mxCell id="CH8Q1lonQJTsU_onpGBQ-95" value="" style="endArrow=ERmandOne;startArrow=ERzeroToMany;endFill=0;startFill=0;labelBackgroundColor=none;strokeColor=#A8201A;fontColor=default;strokeWidth=3;edgeStyle=elbowEdgeStyle;exitX=0.556;exitY=1.159;exitDx=0;exitDy=0;exitPerimeter=0;entryX=0;entryY=0.837;entryDx=0;entryDy=0;entryPerimeter=0;" parent="1" target="CH8Q1lonQJTsU_onpGBQ-78" edge="1">
          <mxGeometry width="100" height="100" relative="1" as="geometry">
            <mxPoint x="370.1200000000001" y="730" as="sourcePoint" />
            <mxPoint x="780" y="870" as="targetPoint" />
            <Array as="points">
              <mxPoint x="370" y="795.23" />
              <mxPoint x="604.79" y="664.12" />
            </Array>
          </mxGeometry>
        </mxCell>
        <mxCell id="CH8Q1lonQJTsU_onpGBQ-99" value="Can have" style="text;html=1;align=center;verticalAlign=middle;whiteSpace=wrap;rounded=0;" parent="1" vertex="1">
          <mxGeometry x="480" y="870" width="60" height="30" as="geometry" />
        </mxCell>
        <mxCell id="i1sRRSghRIqchWh4v-Ae-1" value="SCHEDULE" style="shape=table;startSize=30;container=1;collapsible=1;childLayout=tableLayout;fixedRows=1;rowLines=0;fontStyle=1;align=center;resizeLast=1;labelBackgroundColor=none;fillColor=#FAE5C7;strokeColor=#0F8B8D;fontColor=#143642;" vertex="1" parent="1">
          <mxGeometry x="990" y="140" width="210" height="210" as="geometry" />
        </mxCell>
        <mxCell id="i1sRRSghRIqchWh4v-Ae-2" value="" style="shape=partialRectangle;collapsible=0;dropTarget=0;pointerEvents=0;fillColor=none;points=[[0,0.5],[1,0.5]];portConstraint=eastwest;top=0;left=0;right=0;bottom=1;labelBackgroundColor=none;strokeColor=#0F8B8D;fontColor=#143642;" vertex="1" parent="i1sRRSghRIqchWh4v-Ae-1">
          <mxGeometry y="30" width="210" height="30" as="geometry" />
        </mxCell>
        <mxCell id="i1sRRSghRIqchWh4v-Ae-3" value="PK" style="shape=partialRectangle;overflow=hidden;connectable=0;fillColor=none;top=0;left=0;bottom=0;right=0;fontStyle=1;labelBackgroundColor=none;strokeColor=#0F8B8D;fontColor=#143642;" vertex="1" parent="i1sRRSghRIqchWh4v-Ae-2">
          <mxGeometry width="30" height="30" as="geometry">
            <mxRectangle width="30" height="30" as="alternateBounds" />
          </mxGeometry>
        </mxCell>
        <mxCell id="i1sRRSghRIqchWh4v-Ae-4" value="SCHEDULE_ID_CODE" style="shape=partialRectangle;overflow=hidden;connectable=0;fillColor=none;top=0;left=0;bottom=0;right=0;align=left;spacingLeft=6;fontStyle=5;labelBackgroundColor=none;strokeColor=#0F8B8D;fontColor=#143642;" vertex="1" parent="i1sRRSghRIqchWh4v-Ae-2">
          <mxGeometry x="30" width="180" height="30" as="geometry">
            <mxRectangle width="180" height="30" as="alternateBounds" />
          </mxGeometry>
        </mxCell>
        <mxCell id="i1sRRSghRIqchWh4v-Ae-5" value="" style="shape=partialRectangle;collapsible=0;dropTarget=0;pointerEvents=0;fillColor=none;points=[[0,0.5],[1,0.5]];portConstraint=eastwest;top=0;left=0;right=0;bottom=0;labelBackgroundColor=none;strokeColor=#0F8B8D;fontColor=#143642;" vertex="1" parent="i1sRRSghRIqchWh4v-Ae-1">
          <mxGeometry y="60" width="210" height="30" as="geometry" />
        </mxCell>
        <mxCell id="i1sRRSghRIqchWh4v-Ae-6" value="FK1" style="shape=partialRectangle;overflow=hidden;connectable=0;fillColor=none;top=0;left=0;bottom=0;right=0;labelBackgroundColor=none;strokeColor=#0F8B8D;fontColor=#143642;" vertex="1" parent="i1sRRSghRIqchWh4v-Ae-5">
          <mxGeometry width="30" height="30" as="geometry">
            <mxRectangle width="30" height="30" as="alternateBounds" />
          </mxGeometry>
        </mxCell>
        <mxCell id="i1sRRSghRIqchWh4v-Ae-7" value="EMPLOYEE_ID" style="shape=partialRectangle;overflow=hidden;connectable=0;fillColor=none;top=0;left=0;bottom=0;right=0;align=left;spacingLeft=6;labelBackgroundColor=none;strokeColor=#0F8B8D;fontColor=#143642;" vertex="1" parent="i1sRRSghRIqchWh4v-Ae-5">
          <mxGeometry x="30" width="180" height="30" as="geometry">
            <mxRectangle width="180" height="30" as="alternateBounds" />
          </mxGeometry>
        </mxCell>
        <mxCell id="i1sRRSghRIqchWh4v-Ae-36" value="" style="shape=partialRectangle;collapsible=0;dropTarget=0;pointerEvents=0;fillColor=none;points=[[0,0.5],[1,0.5]];portConstraint=eastwest;top=0;left=0;right=0;bottom=0;labelBackgroundColor=none;strokeColor=#0F8B8D;fontColor=#143642;" vertex="1" parent="i1sRRSghRIqchWh4v-Ae-1">
          <mxGeometry y="90" width="210" height="30" as="geometry" />
        </mxCell>
        <mxCell id="i1sRRSghRIqchWh4v-Ae-37" value="FK2" style="shape=partialRectangle;overflow=hidden;connectable=0;fillColor=none;top=0;left=0;bottom=0;right=0;labelBackgroundColor=none;strokeColor=#0F8B8D;fontColor=#143642;" vertex="1" parent="i1sRRSghRIqchWh4v-Ae-36">
          <mxGeometry width="30" height="30" as="geometry">
            <mxRectangle width="30" height="30" as="alternateBounds" />
          </mxGeometry>
        </mxCell>
        <mxCell id="i1sRRSghRIqchWh4v-Ae-38" value="PATIENT_ID" style="shape=partialRectangle;overflow=hidden;connectable=0;fillColor=none;top=0;left=0;bottom=0;right=0;align=left;spacingLeft=6;labelBackgroundColor=none;strokeColor=#0F8B8D;fontColor=#143642;" vertex="1" parent="i1sRRSghRIqchWh4v-Ae-36">
          <mxGeometry x="30" width="180" height="30" as="geometry">
            <mxRectangle width="180" height="30" as="alternateBounds" />
          </mxGeometry>
        </mxCell>
        <mxCell id="i1sRRSghRIqchWh4v-Ae-43" value="" style="shape=partialRectangle;collapsible=0;dropTarget=0;pointerEvents=0;fillColor=none;points=[[0,0.5],[1,0.5]];portConstraint=eastwest;top=0;left=0;right=0;bottom=0;labelBackgroundColor=none;strokeColor=#0F8B8D;fontColor=#143642;" vertex="1" parent="i1sRRSghRIqchWh4v-Ae-1">
          <mxGeometry y="120" width="210" height="30" as="geometry" />
        </mxCell>
        <mxCell id="i1sRRSghRIqchWh4v-Ae-44" value="" style="shape=partialRectangle;overflow=hidden;connectable=0;fillColor=none;top=0;left=0;bottom=0;right=0;labelBackgroundColor=none;strokeColor=#0F8B8D;fontColor=#143642;" vertex="1" parent="i1sRRSghRIqchWh4v-Ae-43">
          <mxGeometry width="30" height="30" as="geometry">
            <mxRectangle width="30" height="30" as="alternateBounds" />
          </mxGeometry>
        </mxCell>
        <mxCell id="i1sRRSghRIqchWh4v-Ae-45" value="ROOM_NUMBER" style="shape=partialRectangle;overflow=hidden;connectable=0;fillColor=none;top=0;left=0;bottom=0;right=0;align=left;spacingLeft=6;labelBackgroundColor=none;strokeColor=#0F8B8D;fontColor=#143642;" vertex="1" parent="i1sRRSghRIqchWh4v-Ae-43">
          <mxGeometry x="30" width="180" height="30" as="geometry">
            <mxRectangle width="180" height="30" as="alternateBounds" />
          </mxGeometry>
        </mxCell>
        <mxCell id="i1sRRSghRIqchWh4v-Ae-46" value="" style="shape=partialRectangle;collapsible=0;dropTarget=0;pointerEvents=0;fillColor=none;points=[[0,0.5],[1,0.5]];portConstraint=eastwest;top=0;left=0;right=0;bottom=0;labelBackgroundColor=none;strokeColor=#0F8B8D;fontColor=#143642;" vertex="1" parent="i1sRRSghRIqchWh4v-Ae-1">
          <mxGeometry y="150" width="210" height="30" as="geometry" />
        </mxCell>
        <mxCell id="i1sRRSghRIqchWh4v-Ae-47" value="" style="shape=partialRectangle;overflow=hidden;connectable=0;fillColor=none;top=0;left=0;bottom=0;right=0;labelBackgroundColor=none;strokeColor=#0F8B8D;fontColor=#143642;" vertex="1" parent="i1sRRSghRIqchWh4v-Ae-46">
          <mxGeometry width="30" height="30" as="geometry">
            <mxRectangle width="30" height="30" as="alternateBounds" />
          </mxGeometry>
        </mxCell>
        <mxCell id="i1sRRSghRIqchWh4v-Ae-48" value="DATE" style="shape=partialRectangle;overflow=hidden;connectable=0;fillColor=none;top=0;left=0;bottom=0;right=0;align=left;spacingLeft=6;labelBackgroundColor=none;strokeColor=#0F8B8D;fontColor=#143642;" vertex="1" parent="i1sRRSghRIqchWh4v-Ae-46">
          <mxGeometry x="30" width="180" height="30" as="geometry">
            <mxRectangle width="180" height="30" as="alternateBounds" />
          </mxGeometry>
        </mxCell>
        <mxCell id="i1sRRSghRIqchWh4v-Ae-50" value="" style="shape=partialRectangle;collapsible=0;dropTarget=0;pointerEvents=0;fillColor=none;points=[[0,0.5],[1,0.5]];portConstraint=eastwest;top=0;left=0;right=0;bottom=0;labelBackgroundColor=none;strokeColor=#0F8B8D;fontColor=#143642;" vertex="1" parent="i1sRRSghRIqchWh4v-Ae-1">
          <mxGeometry y="180" width="210" height="30" as="geometry" />
        </mxCell>
        <mxCell id="i1sRRSghRIqchWh4v-Ae-51" value="" style="shape=partialRectangle;overflow=hidden;connectable=0;fillColor=none;top=0;left=0;bottom=0;right=0;labelBackgroundColor=none;strokeColor=#0F8B8D;fontColor=#143642;" vertex="1" parent="i1sRRSghRIqchWh4v-Ae-50">
          <mxGeometry width="30" height="30" as="geometry">
            <mxRectangle width="30" height="30" as="alternateBounds" />
          </mxGeometry>
        </mxCell>
        <mxCell id="i1sRRSghRIqchWh4v-Ae-52" value="TIME" style="shape=partialRectangle;overflow=hidden;connectable=0;fillColor=none;top=0;left=0;bottom=0;right=0;align=left;spacingLeft=6;labelBackgroundColor=none;strokeColor=#0F8B8D;fontColor=#143642;" vertex="1" parent="i1sRRSghRIqchWh4v-Ae-50">
          <mxGeometry x="30" width="180" height="30" as="geometry">
            <mxRectangle width="180" height="30" as="alternateBounds" />
          </mxGeometry>
        </mxCell>
        <mxCell id="i1sRRSghRIqchWh4v-Ae-39" value="" style="endArrow=ERmandOne;startArrow=ERzeroToMany;endFill=0;startFill=0;labelBackgroundColor=none;strokeColor=#A8201A;fontColor=default;strokeWidth=3;edgeStyle=elbowEdgeStyle;exitX=0.007;exitY=0.079;exitDx=0;exitDy=0;exitPerimeter=0;" edge="1" parent="1" source="i1sRRSghRIqchWh4v-Ae-50">
          <mxGeometry width="100" height="100" relative="1" as="geometry">
            <mxPoint x="940" y="320" as="sourcePoint" />
            <mxPoint x="850" y="410" as="targetPoint" />
            <Array as="points">
              <mxPoint x="940" y="430" />
            </Array>
          </mxGeometry>
        </mxCell>
        <mxCell id="i1sRRSghRIqchWh4v-Ae-40" value="Works according to" style="text;html=1;align=center;verticalAlign=middle;whiteSpace=wrap;rounded=0;" vertex="1" parent="1">
          <mxGeometry x="860" y="370" width="60" height="30" as="geometry" />
        </mxCell>
        <mxCell id="i1sRRSghRIqchWh4v-Ae-41" value="" style="endArrow=ERmandOne;startArrow=ERoneToMany;endFill=0;startFill=0;labelBackgroundColor=none;strokeColor=#A8201A;fontColor=default;strokeWidth=3;entryX=0.952;entryY=0.006;entryDx=0;entryDy=0;entryPerimeter=0;" edge="1" parent="1" target="CH8Q1lonQJTsU_onpGBQ-38">
          <mxGeometry width="100" height="100" relative="1" as="geometry">
            <mxPoint x="1037" y="350" as="sourcePoint" />
            <mxPoint x="1040" y="600" as="targetPoint" />
          </mxGeometry>
        </mxCell>
        <mxCell id="i1sRRSghRIqchWh4v-Ae-42" value="Treated based on" style="text;html=1;align=center;verticalAlign=middle;whiteSpace=wrap;rounded=0;" vertex="1" parent="1">
          <mxGeometry x="900" y="450" width="60" height="30" as="geometry" />
        </mxCell>
        <mxCell id="i1sRRSghRIqchWh4v-Ae-100" value="" style="endArrow=ERzeroToMany;startArrow=ERmandOne;endFill=0;startFill=0;labelBackgroundColor=none;strokeColor=#A8201A;fontColor=default;strokeWidth=3;edgeStyle=elbowEdgeStyle;elbow=vertical;exitX=0.055;exitY=1.02;exitDx=0;exitDy=0;exitPerimeter=0;" edge="1" parent="1">
          <mxGeometry width="100" height="100" relative="1" as="geometry">
            <mxPoint x="396" y="330" as="sourcePoint" />
            <mxPoint x="220" y="760" as="targetPoint" />
          </mxGeometry>
        </mxCell>
        <mxCell id="i1sRRSghRIqchWh4v-Ae-101" value="BUILDING LEASE" style="shape=table;startSize=30;container=1;collapsible=1;childLayout=tableLayout;fixedRows=1;rowLines=0;fontStyle=1;align=center;resizeLast=1;labelBackgroundColor=none;fillColor=#FAE5C7;strokeColor=#0F8B8D;fontColor=#143642;" vertex="1" parent="1">
          <mxGeometry x="120" y="760" width="175.5" height="180" as="geometry" />
        </mxCell>
        <mxCell id="i1sRRSghRIqchWh4v-Ae-102" value="" style="shape=partialRectangle;collapsible=0;dropTarget=0;pointerEvents=0;fillColor=none;points=[[0,0.5],[1,0.5]];portConstraint=eastwest;top=0;left=0;right=0;bottom=1;labelBackgroundColor=none;strokeColor=#0F8B8D;fontColor=#143642;" vertex="1" parent="i1sRRSghRIqchWh4v-Ae-101">
          <mxGeometry y="30" width="175.5" height="30" as="geometry" />
        </mxCell>
        <mxCell id="i1sRRSghRIqchWh4v-Ae-103" value="PK" style="shape=partialRectangle;overflow=hidden;connectable=0;fillColor=none;top=0;left=0;bottom=0;right=0;fontStyle=1;labelBackgroundColor=none;strokeColor=#0F8B8D;fontColor=#143642;" vertex="1" parent="i1sRRSghRIqchWh4v-Ae-102">
          <mxGeometry width="30" height="30" as="geometry">
            <mxRectangle width="30" height="30" as="alternateBounds" />
          </mxGeometry>
        </mxCell>
        <mxCell id="i1sRRSghRIqchWh4v-Ae-104" value="LEASE_PAYMENT_ID" style="shape=partialRectangle;overflow=hidden;connectable=0;fillColor=none;top=0;left=0;bottom=0;right=0;align=left;spacingLeft=6;fontStyle=5;labelBackgroundColor=none;strokeColor=#0F8B8D;fontColor=#143642;" vertex="1" parent="i1sRRSghRIqchWh4v-Ae-102">
          <mxGeometry x="30" width="145.5" height="30" as="geometry">
            <mxRectangle width="145.5" height="30" as="alternateBounds" />
          </mxGeometry>
        </mxCell>
        <mxCell id="i1sRRSghRIqchWh4v-Ae-105" value="" style="shape=partialRectangle;collapsible=0;dropTarget=0;pointerEvents=0;fillColor=none;points=[[0,0.5],[1,0.5]];portConstraint=eastwest;top=0;left=0;right=0;bottom=0;labelBackgroundColor=none;strokeColor=#0F8B8D;fontColor=#143642;" vertex="1" parent="i1sRRSghRIqchWh4v-Ae-101">
          <mxGeometry y="60" width="175.5" height="30" as="geometry" />
        </mxCell>
        <mxCell id="i1sRRSghRIqchWh4v-Ae-106" value="" style="shape=partialRectangle;overflow=hidden;connectable=0;fillColor=none;top=0;left=0;bottom=0;right=0;labelBackgroundColor=none;strokeColor=#0F8B8D;fontColor=#143642;" vertex="1" parent="i1sRRSghRIqchWh4v-Ae-105">
          <mxGeometry width="30" height="30" as="geometry">
            <mxRectangle width="30" height="30" as="alternateBounds" />
          </mxGeometry>
        </mxCell>
        <mxCell id="i1sRRSghRIqchWh4v-Ae-107" value="AMOUNT" style="shape=partialRectangle;overflow=hidden;connectable=0;fillColor=none;top=0;left=0;bottom=0;right=0;align=left;spacingLeft=6;labelBackgroundColor=none;strokeColor=#0F8B8D;fontColor=#143642;" vertex="1" parent="i1sRRSghRIqchWh4v-Ae-105">
          <mxGeometry x="30" width="145.5" height="30" as="geometry">
            <mxRectangle width="145.5" height="30" as="alternateBounds" />
          </mxGeometry>
        </mxCell>
        <mxCell id="i1sRRSghRIqchWh4v-Ae-108" value="" style="shape=partialRectangle;collapsible=0;dropTarget=0;pointerEvents=0;fillColor=none;points=[[0,0.5],[1,0.5]];portConstraint=eastwest;top=0;left=0;right=0;bottom=0;labelBackgroundColor=none;strokeColor=#0F8B8D;fontColor=#143642;" vertex="1" parent="i1sRRSghRIqchWh4v-Ae-101">
          <mxGeometry y="90" width="175.5" height="30" as="geometry" />
        </mxCell>
        <mxCell id="i1sRRSghRIqchWh4v-Ae-109" value="" style="shape=partialRectangle;overflow=hidden;connectable=0;fillColor=none;top=0;left=0;bottom=0;right=0;labelBackgroundColor=none;strokeColor=#0F8B8D;fontColor=#143642;" vertex="1" parent="i1sRRSghRIqchWh4v-Ae-108">
          <mxGeometry width="30" height="30" as="geometry">
            <mxRectangle width="30" height="30" as="alternateBounds" />
          </mxGeometry>
        </mxCell>
        <mxCell id="i1sRRSghRIqchWh4v-Ae-110" value="DATE_PAID" style="shape=partialRectangle;overflow=hidden;connectable=0;fillColor=none;top=0;left=0;bottom=0;right=0;align=left;spacingLeft=6;labelBackgroundColor=none;strokeColor=#0F8B8D;fontColor=#143642;" vertex="1" parent="i1sRRSghRIqchWh4v-Ae-108">
          <mxGeometry x="30" width="145.5" height="30" as="geometry">
            <mxRectangle width="145.5" height="30" as="alternateBounds" />
          </mxGeometry>
        </mxCell>
        <mxCell id="i1sRRSghRIqchWh4v-Ae-122" value="" style="shape=partialRectangle;collapsible=0;dropTarget=0;pointerEvents=0;fillColor=none;points=[[0,0.5],[1,0.5]];portConstraint=eastwest;top=0;left=0;right=0;bottom=0;labelBackgroundColor=none;strokeColor=#0F8B8D;fontColor=#143642;" vertex="1" parent="i1sRRSghRIqchWh4v-Ae-101">
          <mxGeometry y="120" width="175.5" height="30" as="geometry" />
        </mxCell>
        <mxCell id="i1sRRSghRIqchWh4v-Ae-123" value="FK1" style="shape=partialRectangle;overflow=hidden;connectable=0;fillColor=none;top=0;left=0;bottom=0;right=0;labelBackgroundColor=none;strokeColor=#0F8B8D;fontColor=#143642;" vertex="1" parent="i1sRRSghRIqchWh4v-Ae-122">
          <mxGeometry width="30" height="30" as="geometry">
            <mxRectangle width="30" height="30" as="alternateBounds" />
          </mxGeometry>
        </mxCell>
        <mxCell id="i1sRRSghRIqchWh4v-Ae-124" value="BANK_NAME" style="shape=partialRectangle;overflow=hidden;connectable=0;fillColor=none;top=0;left=0;bottom=0;right=0;align=left;spacingLeft=6;labelBackgroundColor=none;strokeColor=#0F8B8D;fontColor=#143642;" vertex="1" parent="i1sRRSghRIqchWh4v-Ae-122">
          <mxGeometry x="30" width="145.5" height="30" as="geometry">
            <mxRectangle width="145.5" height="30" as="alternateBounds" />
          </mxGeometry>
        </mxCell>
        <mxCell id="i1sRRSghRIqchWh4v-Ae-125" value="" style="shape=partialRectangle;collapsible=0;dropTarget=0;pointerEvents=0;fillColor=none;points=[[0,0.5],[1,0.5]];portConstraint=eastwest;top=0;left=0;right=0;bottom=0;labelBackgroundColor=none;strokeColor=#0F8B8D;fontColor=#143642;" vertex="1" parent="i1sRRSghRIqchWh4v-Ae-101">
          <mxGeometry y="150" width="175.5" height="30" as="geometry" />
        </mxCell>
        <mxCell id="i1sRRSghRIqchWh4v-Ae-126" value="FK1" style="shape=partialRectangle;overflow=hidden;connectable=0;fillColor=none;top=0;left=0;bottom=0;right=0;labelBackgroundColor=none;strokeColor=#0F8B8D;fontColor=#143642;" vertex="1" parent="i1sRRSghRIqchWh4v-Ae-125">
          <mxGeometry width="30" height="30" as="geometry">
            <mxRectangle width="30" height="30" as="alternateBounds" />
          </mxGeometry>
        </mxCell>
        <mxCell id="i1sRRSghRIqchWh4v-Ae-127" value="ACCT_ROUTING_NUM" style="shape=partialRectangle;overflow=hidden;connectable=0;fillColor=none;top=0;left=0;bottom=0;right=0;align=left;spacingLeft=6;labelBackgroundColor=none;strokeColor=#0F8B8D;fontColor=#143642;" vertex="1" parent="i1sRRSghRIqchWh4v-Ae-125">
          <mxGeometry x="30" width="145.5" height="30" as="geometry">
            <mxRectangle width="145.5" height="30" as="alternateBounds" />
          </mxGeometry>
        </mxCell>
        <mxCell id="i1sRRSghRIqchWh4v-Ae-120" value="Pays for" style="text;html=1;align=center;verticalAlign=middle;whiteSpace=wrap;rounded=0;fontColor=#143642;" vertex="1" parent="1">
          <mxGeometry x="250" y="510" width="60" height="30" as="geometry" />
        </mxCell>
        <mxCell id="i1sRRSghRIqchWh4v-Ae-128" value="MONTHLY EXPENDITURE" style="shape=table;startSize=30;container=1;collapsible=1;childLayout=tableLayout;fixedRows=1;rowLines=0;fontStyle=1;align=center;resizeLast=1;labelBackgroundColor=none;fillColor=#FAE5C7;strokeColor=#0F8B8D;fontColor=#143642;" vertex="1" parent="1">
          <mxGeometry x="1140" y="370" width="175.5" height="180" as="geometry" />
        </mxCell>
        <mxCell id="i1sRRSghRIqchWh4v-Ae-129" value="" style="shape=partialRectangle;collapsible=0;dropTarget=0;pointerEvents=0;fillColor=none;points=[[0,0.5],[1,0.5]];portConstraint=eastwest;top=0;left=0;right=0;bottom=1;labelBackgroundColor=none;strokeColor=#0F8B8D;fontColor=#143642;" vertex="1" parent="i1sRRSghRIqchWh4v-Ae-128">
          <mxGeometry y="30" width="175.5" height="30" as="geometry" />
        </mxCell>
        <mxCell id="i1sRRSghRIqchWh4v-Ae-130" value="PK" style="shape=partialRectangle;overflow=hidden;connectable=0;fillColor=none;top=0;left=0;bottom=0;right=0;fontStyle=1;labelBackgroundColor=none;strokeColor=#0F8B8D;fontColor=#143642;" vertex="1" parent="i1sRRSghRIqchWh4v-Ae-129">
          <mxGeometry width="30" height="30" as="geometry">
            <mxRectangle width="30" height="30" as="alternateBounds" />
          </mxGeometry>
        </mxCell>
        <mxCell id="i1sRRSghRIqchWh4v-Ae-131" value="EXPENDITURE_ID" style="shape=partialRectangle;overflow=hidden;connectable=0;fillColor=none;top=0;left=0;bottom=0;right=0;align=left;spacingLeft=6;fontStyle=5;labelBackgroundColor=none;strokeColor=#0F8B8D;fontColor=#143642;" vertex="1" parent="i1sRRSghRIqchWh4v-Ae-129">
          <mxGeometry x="30" width="145.5" height="30" as="geometry">
            <mxRectangle width="145.5" height="30" as="alternateBounds" />
          </mxGeometry>
        </mxCell>
        <mxCell id="i1sRRSghRIqchWh4v-Ae-132" value="" style="shape=partialRectangle;collapsible=0;dropTarget=0;pointerEvents=0;fillColor=none;points=[[0,0.5],[1,0.5]];portConstraint=eastwest;top=0;left=0;right=0;bottom=0;labelBackgroundColor=none;strokeColor=#0F8B8D;fontColor=#143642;" vertex="1" parent="i1sRRSghRIqchWh4v-Ae-128">
          <mxGeometry y="60" width="175.5" height="30" as="geometry" />
        </mxCell>
        <mxCell id="i1sRRSghRIqchWh4v-Ae-133" value="" style="shape=partialRectangle;overflow=hidden;connectable=0;fillColor=none;top=0;left=0;bottom=0;right=0;labelBackgroundColor=none;strokeColor=#0F8B8D;fontColor=#143642;" vertex="1" parent="i1sRRSghRIqchWh4v-Ae-132">
          <mxGeometry width="30" height="30" as="geometry">
            <mxRectangle width="30" height="30" as="alternateBounds" />
          </mxGeometry>
        </mxCell>
        <mxCell id="i1sRRSghRIqchWh4v-Ae-134" value="EXPENDITURE_TYPE" style="shape=partialRectangle;overflow=hidden;connectable=0;fillColor=none;top=0;left=0;bottom=0;right=0;align=left;spacingLeft=6;labelBackgroundColor=none;strokeColor=#0F8B8D;fontColor=#143642;" vertex="1" parent="i1sRRSghRIqchWh4v-Ae-132">
          <mxGeometry x="30" width="145.5" height="30" as="geometry">
            <mxRectangle width="145.5" height="30" as="alternateBounds" />
          </mxGeometry>
        </mxCell>
        <mxCell id="i1sRRSghRIqchWh4v-Ae-135" value="" style="shape=partialRectangle;collapsible=0;dropTarget=0;pointerEvents=0;fillColor=none;points=[[0,0.5],[1,0.5]];portConstraint=eastwest;top=0;left=0;right=0;bottom=0;labelBackgroundColor=none;strokeColor=#0F8B8D;fontColor=#143642;" vertex="1" parent="i1sRRSghRIqchWh4v-Ae-128">
          <mxGeometry y="90" width="175.5" height="30" as="geometry" />
        </mxCell>
        <mxCell id="i1sRRSghRIqchWh4v-Ae-136" value="" style="shape=partialRectangle;overflow=hidden;connectable=0;fillColor=none;top=0;left=0;bottom=0;right=0;labelBackgroundColor=none;strokeColor=#0F8B8D;fontColor=#143642;" vertex="1" parent="i1sRRSghRIqchWh4v-Ae-135">
          <mxGeometry width="30" height="30" as="geometry">
            <mxRectangle width="30" height="30" as="alternateBounds" />
          </mxGeometry>
        </mxCell>
        <mxCell id="i1sRRSghRIqchWh4v-Ae-137" value="AMOUNT" style="shape=partialRectangle;overflow=hidden;connectable=0;fillColor=none;top=0;left=0;bottom=0;right=0;align=left;spacingLeft=6;labelBackgroundColor=none;strokeColor=#0F8B8D;fontColor=#143642;" vertex="1" parent="i1sRRSghRIqchWh4v-Ae-135">
          <mxGeometry x="30" width="145.5" height="30" as="geometry">
            <mxRectangle width="145.5" height="30" as="alternateBounds" />
          </mxGeometry>
        </mxCell>
        <mxCell id="i1sRRSghRIqchWh4v-Ae-138" value="" style="shape=partialRectangle;collapsible=0;dropTarget=0;pointerEvents=0;fillColor=none;points=[[0,0.5],[1,0.5]];portConstraint=eastwest;top=0;left=0;right=0;bottom=0;labelBackgroundColor=none;strokeColor=#0F8B8D;fontColor=#143642;" vertex="1" parent="i1sRRSghRIqchWh4v-Ae-128">
          <mxGeometry y="120" width="175.5" height="30" as="geometry" />
        </mxCell>
        <mxCell id="i1sRRSghRIqchWh4v-Ae-139" value="FK1" style="shape=partialRectangle;overflow=hidden;connectable=0;fillColor=none;top=0;left=0;bottom=0;right=0;labelBackgroundColor=none;strokeColor=#0F8B8D;fontColor=#143642;" vertex="1" parent="i1sRRSghRIqchWh4v-Ae-138">
          <mxGeometry width="30" height="30" as="geometry">
            <mxRectangle width="30" height="30" as="alternateBounds" />
          </mxGeometry>
        </mxCell>
        <mxCell id="i1sRRSghRIqchWh4v-Ae-140" value="BANK_NAME" style="shape=partialRectangle;overflow=hidden;connectable=0;fillColor=none;top=0;left=0;bottom=0;right=0;align=left;spacingLeft=6;labelBackgroundColor=none;strokeColor=#0F8B8D;fontColor=#143642;" vertex="1" parent="i1sRRSghRIqchWh4v-Ae-138">
          <mxGeometry x="30" width="145.5" height="30" as="geometry">
            <mxRectangle width="145.5" height="30" as="alternateBounds" />
          </mxGeometry>
        </mxCell>
        <mxCell id="i1sRRSghRIqchWh4v-Ae-141" value="" style="shape=partialRectangle;collapsible=0;dropTarget=0;pointerEvents=0;fillColor=none;points=[[0,0.5],[1,0.5]];portConstraint=eastwest;top=0;left=0;right=0;bottom=0;labelBackgroundColor=none;strokeColor=#0F8B8D;fontColor=#143642;" vertex="1" parent="i1sRRSghRIqchWh4v-Ae-128">
          <mxGeometry y="150" width="175.5" height="30" as="geometry" />
        </mxCell>
        <mxCell id="i1sRRSghRIqchWh4v-Ae-142" value="FK1" style="shape=partialRectangle;overflow=hidden;connectable=0;fillColor=none;top=0;left=0;bottom=0;right=0;labelBackgroundColor=none;strokeColor=#0F8B8D;fontColor=#143642;" vertex="1" parent="i1sRRSghRIqchWh4v-Ae-141">
          <mxGeometry width="30" height="30" as="geometry">
            <mxRectangle width="30" height="30" as="alternateBounds" />
          </mxGeometry>
        </mxCell>
        <mxCell id="i1sRRSghRIqchWh4v-Ae-143" value="ACCT_ROUTING_NUM" style="shape=partialRectangle;overflow=hidden;connectable=0;fillColor=none;top=0;left=0;bottom=0;right=0;align=left;spacingLeft=6;labelBackgroundColor=none;strokeColor=#0F8B8D;fontColor=#143642;" vertex="1" parent="i1sRRSghRIqchWh4v-Ae-141">
          <mxGeometry x="30" width="145.5" height="30" as="geometry">
            <mxRectangle width="145.5" height="30" as="alternateBounds" />
          </mxGeometry>
        </mxCell>
        <mxCell id="i1sRRSghRIqchWh4v-Ae-144" value="" style="endArrow=ERmandOne;startArrow=ERzeroToMany;endFill=0;startFill=0;labelBackgroundColor=none;strokeColor=#A8201A;fontColor=default;strokeWidth=3;edgeStyle=elbowEdgeStyle;elbow=vertical;exitX=0.5;exitY=0;exitDx=0;exitDy=0;" edge="1" parent="1" source="i1sRRSghRIqchWh4v-Ae-128">
          <mxGeometry width="100" height="100" relative="1" as="geometry">
            <mxPoint x="1290" y="140" as="sourcePoint" />
            <mxPoint x="425" y="140" as="targetPoint" />
            <Array as="points">
              <mxPoint x="830" y="120" />
            </Array>
          </mxGeometry>
        </mxCell>
        <mxCell id="i1sRRSghRIqchWh4v-Ae-145" value="Pays for" style="text;html=1;align=center;verticalAlign=middle;whiteSpace=wrap;rounded=0;fontColor=#143642;" vertex="1" parent="1">
          <mxGeometry x="1230" y="300" width="60" height="30" as="geometry" />
        </mxCell>
      </root>
    </mxGraphModel>
  </diagram>
</mxfile>
